<?xml version="1.0" standalone="no"?>
<!DOCTYPE svg PUBLIC "-//W3C//DTD SVG 1.1//EN" "http://www.w3.org/Graphics/SVG/1.1/DTD/svg11.dtd" >
<svg xmlns="http://www.w3.org/2000/svg">
<metadata></metadata>
<defs>
<font id="cabrito_ext_boldext_bold" horiz-adv-x="1806" >
<font-face units-per-em="2048" ascent="1567" descent="-481" />
<missing-glyph horiz-adv-x="497" />
<glyph unicode="&#xfb01;" horiz-adv-x="1435" d="M61 913v88q0 32 9 45t34 13h156v127q0 63 19 121.5t61 113t103.5 95t153.5 64.5t204 24q216 0 336 -73t120 -216q0 -72 -49.5 -118t-117.5 -46q-67 0 -111.5 42.5t-44.5 111.5q0 39 14 67q-58 12 -151 12q-130 0 -190 -54t-60 -179v-92h262q3 0 8.5 1t9.5 1l363 18 q30 0 41.5 -13t11.5 -44v-733q0 -94 68 -94q23 0 43.5 4t29.5 4q25 3 25 -21v-123q0 -39 -33 -49q-55 -22 -174 -22q-37 0 -70 6t-66 22t-56.5 42t-38.5 68t-15 97v565q-2 41 -28 56.5t-105 15.5q-18 0 -24 4h-252v-563q0 -65 21.5 -83.5t84.5 -18.5h39q28 0 36.5 -7.5 t8.5 -27.5v-121q0 -26 -9 -34.5t-36 -8.5h-579q-27 0 -36 8.5t-9 34.5v121q0 20 8.5 27.5t36.5 7.5h39q63 0 85.5 18.5t22.5 83.5v563h-139q-38 0 -49 8t-11 41z" />
<glyph unicode="&#xfb02;" horiz-adv-x="1462" d="M61 913v88q0 32 9 45t34 13h156v129q0 206 118.5 311t369.5 105q257 0 388.5 -108t131.5 -308v-899q0 -94 65 -94q24 0 45 4t31 4q23 3 23 -21v-123q0 -39 -31 -49q-58 -22 -176 -22q-37 0 -70 6t-66 22t-56.5 42t-38.5 68t-15 97v975q0 109 -57 156t-162 47 q-107 0 -160 -47.5t-53 -155.5v-139h239q36 0 47 -6.5t11 -32.5v-111q0 -24 -13 -34.5t-43 -10.5h-241v-563q0 -65 21.5 -83.5t84.5 -18.5h39q28 0 36.5 -7.5t8.5 -27.5v-121q0 -26 -9 -34.5t-36 -8.5h-579q-27 0 -36 8.5t-9 34.5v121q0 20 8.5 27.5t36.5 7.5h39 q63 0 85.5 18.5t22.5 83.5v563h-139q-38 0 -49 8t-11 41z" />
<glyph unicode="&#xfb03;" horiz-adv-x="2181" d="M57 924v94q0 32 9 44.5t34 12.5h156v25q0 198 114.5 299.5t364.5 101.5q222 0 330 -102q63 94 181 149.5t292 55.5q216 0 336.5 -73t120.5 -216q0 -72 -50 -118t-120 -46q-66 0 -111 42.5t-45 111.5q0 59 35 100q-55 12 -139 12q-143 0 -209 -54t-66 -179v-109h283 l364 19q30 0 42 -13.5t12 -44.5v-747q0 -94 65 -94q24 0 44 4t32 4q12 2 17 -3t5 -18v-123q0 -39 -30 -49q-58 -22 -176 -22q-37 0 -70 6t-66 22t-56.5 42t-38.5 68t-15 97v568q0 50 -23.5 66.5t-109.5 16.5h-279v-573q0 -64 22.5 -83t84.5 -19h37q30 0 38.5 -7.5t8.5 -27.5 v-121q0 -26 -9.5 -34.5t-37.5 -8.5h-578q-27 0 -36 8.5t-9 34.5v121q0 20 8 27.5t37 7.5h39q62 0 84 18.5t22 83.5v573h-458v-573q0 -65 21.5 -83.5t84.5 -18.5h39q28 0 36.5 -7.5t8.5 -27.5v-121q0 -26 -9 -34.5t-36 -8.5h-579q-27 0 -36.5 8.5t-9.5 34.5v121q0 20 9 27.5 t37 7.5h38q59 0 82.5 15.5t26.5 66.5v593h-139q-38 0 -49 8.5t-11 41.5zM543 1075h458v92q-33 148 -233 148q-116 0 -170.5 -47t-54.5 -154v-39z" />
<glyph unicode="&#xfb04;" horiz-adv-x="2265" d="M57 924v94q0 32 9 44.5t34 12.5h156v25q0 198 114.5 299.5t364.5 101.5q221 0 324 -80q110 178 442 178q283 0 414 -97t131 -310v-891q0 -65 22 -83.5t84 -18.5h39q28 0 36.5 -7.5t8.5 -27.5v-121q0 -26 -9 -34.5t-36 -8.5h-577q-28 0 -37.5 8.5t-9.5 34.5v121 q0 20 9.5 27.5t37.5 7.5h37q63 0 84.5 18.5t21.5 83.5v858q0 134 -59.5 186t-181.5 52q-115 0 -170.5 -54.5t-55.5 -177.5v-90h236q36 0 46.5 -6.5t10.5 -32.5v-116q0 -24 -12.5 -35t-42.5 -11h-238v-593q3 -51 26 -66.5t81 -15.5h37q30 0 38.5 -7.5t8.5 -27.5v-121 q0 -26 -9.5 -34.5t-37.5 -8.5h-578q-27 0 -36 8.5t-9 34.5v121q0 20 8 27.5t37 7.5h39q58 0 80.5 15.5t25.5 66.5v593h-458v-573q0 -65 21.5 -83.5t84.5 -18.5h39q28 0 36.5 -7.5t8.5 -27.5v-121q0 -26 -9 -34.5t-36 -8.5h-579q-27 0 -36.5 8.5t-9.5 34.5v121q0 20 9 27.5 t37 7.5h38q59 0 82.5 15.5t26.5 66.5v593h-139q-38 0 -49 8.5t-11 41.5zM543 1075h458v92q-33 148 -233 148q-116 0 -170.5 -47t-54.5 -154v-39z" />
<glyph horiz-adv-x="2048" />
<glyph horiz-adv-x="2048" />
<glyph unicode="&#xd;" horiz-adv-x="2048" />
<glyph unicode=" "  horiz-adv-x="497" />
<glyph unicode="&#x09;" horiz-adv-x="497" />
<glyph unicode="&#xa0;" horiz-adv-x="497" />
<glyph unicode="!" horiz-adv-x="653" d="M131 1331q0 106 46.5 154.5t148.5 48.5t147 -48.5t45 -154.5q0 -62 -21.5 -155t-48 -181.5t-48 -231.5t-21.5 -292q0 -14 -2.5 -20.5t-14.5 -11.5t-36 -5q-35 0 -45.5 8.5t-10.5 28.5q0 149 -21.5 292t-48 231.5t-48 181.5t-21.5 155zM145 152q0 81 57 135.5t134 54.5 q74 0 126 -48t52 -128q0 -82 -58 -134t-137 -52q-74 0 -124 48t-50 124z" />
<glyph unicode="&#x22;" horiz-adv-x="952" d="M102 1446q-3 31 30 43t126 12q94 0 126.5 -12t29.5 -43l-31 -430q-3 -27 -27.5 -36t-97.5 -9q-74 0 -98 8.5t-27 36.5zM537 1446q-3 31 30 43t127 12q93 0 126 -12t30 -43l-33 -430q-2 -26 -26.5 -35.5t-96.5 -9.5q-74 0 -99 8.5t-28 36.5z" />
<glyph unicode="#" horiz-adv-x="1994" d="M68 502q0 24 7 39.5t17 24.5t31 13.5t40 5.5t52 1h219l146 313h-226q-84 0 -84 111q0 29 9 46.5t31 25.5t44 10t64 2h252l151 329q14 32 31 46t51 20t103 6q71 0 96 -19t20 -61q-3 -20 -18 -55l-123 -266h365l151 329q14 32 30.5 46t50.5 20t103 6q71 0 96.5 -19 t20.5 -61q-3 -20 -18 -55l-123 -266h194q25 0 42 -10.5t23.5 -30t8.5 -35t2 -37.5q0 -40 -18.5 -61t-67.5 -21h-274l-144 -313h226q25 0 41.5 -10.5t23 -30t8.5 -35t2 -37.5q0 -40 -18.5 -61t-67.5 -21h-305l-159 -350q-20 -42 -47 -53t-109 -11q-144 0 -144 74q0 15 15 53 l131 287h-363l-159 -350q-20 -42 -47 -53t-109 -11q-143 0 -143 74q0 18 14 53l131 287h-192q-84 0 -84 111zM748 586h362l145 313h-364z" />
<glyph unicode="$" horiz-adv-x="1417" d="M78 326l47 -4l-16 24q-24 39 -5.5 77.5t66.5 66.5t98 28q74 0 127.5 -50.5t53.5 -129.5q0 -72 -43 -121q105 -39 278 -39q75 0 134.5 11t106.5 34t72 63t25 95q0 58 -25 102.5t-68 72.5t-100.5 51.5t-122 39t-133 35.5t-133 39.5t-122 52.5t-100.5 74t-68 104t-25 142 q0 173 115.5 271.5t326.5 123.5v137q0 50 56 53h180q51 0 51 -51v-135q219 -20 332.5 -109.5t113.5 -232.5q0 -84 -57 -136t-137 -52q-75 0 -126.5 49t-51.5 129q0 64 39 112q-99 41 -246 41q-293 0 -293 -155q0 -51 31 -89t83 -62t119 -44t142 -40.5t149.5 -44.5 t141.5 -61.5t119 -87.5t83 -127t31 -175q0 -99 -36 -176t-102.5 -127.5t-153 -80.5t-195.5 -42v-160q0 -50 -56 -53h-178q-53 0 -53 51v160q-233 20 -353.5 107t-121.5 239z" />
<glyph unicode="%" horiz-adv-x="2215" d="M63 1083q0 89 25.5 163.5t78 134.5t142.5 94t209 34q120 0 210 -34t143 -94t78.5 -134.5t25.5 -163.5t-25.5 -164t-78.5 -135.5t-143 -94.5t-210 -34q-96 0 -173 22.5t-129 62t-87 94t-50.5 116.5t-15.5 133zM334 1081q0 -126 46 -195t138 -69q94 0 140.5 69t46.5 195 t-47 196.5t-140 70.5q-89 0 -136.5 -71t-47.5 -196zM508 109q-2 23 24 61l1014 1321q18 24 33 32t39 7q40 0 79 -24.5t42 -69.5q3 -32 -29 -72l-1012 -1319q-20 -25 -36.5 -34.5t-40.5 -8.5q-42 2 -77 29.5t-36 77.5zM1241 410q0 89 25.5 163.5t78 134.5t142.5 94t209 34 q120 0 210 -34t142.5 -94t78 -134.5t25.5 -163.5t-25.5 -164t-78 -135.5t-142.5 -94.5t-210 -34q-96 0 -173 22.5t-129 62t-87 94t-50.5 116.5t-15.5 133zM1511 408q0 -125 47 -195t138 -70q94 0 140 69t46 196q0 126 -46.5 196t-139.5 70q-89 0 -137 -70.5t-48 -195.5z" />
<glyph unicode="&#x26;" horiz-adv-x="1677" d="M80 418q0 170 96 259.5t254 104.5q-44 3 -88.5 22.5t-86 56t-67.5 101t-26 146.5q0 186 135 288.5t385 102.5q236 0 378.5 -92t147.5 -246v-8q0 -82 -57 -131t-137 -49q-76 0 -127 48t-51 128q0 60 34 106q-79 31 -172 31q-235 0 -235 -190q0 -105 65.5 -157t182.5 -52 h823q51 0 66 -12.5t18 -69.5l14 -279q2 -26 -3 -33.5t-30 -7.5h-137q-24 0 -34 8t-13 31l-8 56q-9 58 -37 70t-135 12h-37v-369q0 -62 20 -79t82 -17h23q26 0 34.5 -7.5t8.5 -25.5v-123q0 -26 -8.5 -33.5t-34.5 -7.5h-639q-137 0 -245 23t-190 72t-125.5 130.5t-43.5 192.5z M416 430q0 -109 78 -154t239 -45h160v431h-186q-57 0 -106.5 -12t-92 -38t-67.5 -72.5t-25 -109.5z" />
<glyph unicode="'" horiz-adv-x="516" d="M102 1446q-3 31 30 43t126 12q94 0 126.5 -12t29.5 -43l-31 -430q-3 -27 -27.5 -36t-97.5 -9q-74 0 -98 8.5t-27 36.5z" />
<glyph unicode="(" horiz-adv-x="786" d="M63 631q2 -262 160 -480.5t465 -365.5q23 -11 31.5 -8.5t21.5 22.5q15 21 15 32t-13 24q-387 330 -393 776h-287zM63 631q2 262 160 480.5t465 365.5q23 10 31 8t22 -23q15 -21 15 -31.5t-13 -23.5q-387 -330 -393 -776h-287z" />
<glyph unicode=")" horiz-adv-x="786" d="M28 -169q0 11 13 24q388 331 391 776h289q-2 -262 -160 -480.5t-465 -365.5q-23 -11 -31.5 -8.5t-21.5 22.5q-15 21 -15 32zM28 1430.5q0 10.5 15 31.5q14 21 22 23t31 -8q307 -147 465 -365.5t160 -480.5h-289q-3 445 -391 776q-13 13 -13 23.5z" />
<glyph unicode="*" horiz-adv-x="958" d="M100 993q11 36 52 60q44 25 138.5 33t139.5 30q-46 25 -139.5 36t-138.5 38q-39 24 -49.5 61t14.5 76q25 41 80 41q33 0 65 -16q42 -26 96.5 -96t94.5 -99q-5 45 -43.5 124t-38.5 128q0 44 28 72t74 28q45 0 72.5 -30t27.5 -72q0 -48 -35.5 -127t-39.5 -127l2 2 q38 23 69.5 62t62.5 77.5t70 59.5q32 16 62 16q56 0 84 -47q23 -39 10 -75.5t-53 -59.5q-46 -25 -139.5 -36.5t-141.5 -33.5l-4 -2q49 -24 141.5 -37t137.5 -39q38 -23 50 -60.5t-11 -76.5q-29 -45 -82 -45q-32 0 -64 19q-29 17 -54.5 45t-41.5 53.5t-42 54.5t-56 47 q6 -44 40.5 -121t34.5 -125q0 -42 -27.5 -72t-72.5 -30q-46 0 -74 28t-28 72q0 48 37.5 126t42.5 122q-33 -24 -64 -61.5t-61 -71.5t-66 -55q-31 -17 -61 -17q-56 0 -86 46q-24 39 -13 75z" />
<glyph unicode="+" horiz-adv-x="1093" d="M76 702q0 24 7 39.5t17 24.5t31 13.5t40 5.5t52 1h217v244q0 78 117 78q45 0 66.5 -18t21.5 -68v-236h289q28 0 46.5 -10.5t26 -29.5t9.5 -34t2 -36q0 -43 -19.5 -63.5t-72.5 -20.5h-281v-260q0 -80 -115 -80q-57 0 -73.5 33t-16.5 110v197h-278q-86 0 -86 110z" />
<glyph unicode="," horiz-adv-x="585" d="M103.5 -252.5q1.5 9.5 19.5 27.5q42 39 81 97.5t52 107.5q-63 5 -105 52t-42 120q0 85 51 137.5t139 52.5q80 0 129 -53.5t49 -149.5q0 -212 -272 -440q-19 -16 -28.5 -17t-31.5 15l-28 27q-15 14 -13.5 23.5z" />
<glyph unicode="-" horiz-adv-x="950" d="M119 590v112q0 26 8.5 34.5t36.5 8.5h627q28 0 35.5 -9.5t7.5 -33.5v-112q0 -26 -9.5 -34.5t-36.5 -8.5h-624q-27 0 -36 8.5t-9 34.5z" />
<glyph unicode="." horiz-adv-x="552" d="M92 152q0 81 57.5 135.5t133.5 54.5q74 0 126 -48t52 -128q0 -82 -57 -134t-138 -52q-74 0 -124 48t-50 124z" />
<glyph unicode="/" horiz-adv-x="1112" d="M55 -7q-3 6 8 32l699 1513q8 21 18.5 28.5t28.5 4.5l223 -43q22 -4 25 -13.5t-8 -31.5l-699 -1516q-9 -21 -18.5 -26.5t-30.5 -1.5l-219 43q-24 5 -27 11z" />
<glyph unicode="0" horiz-adv-x="1544" d="M82 748q0 164 44 302t129 241t218 160.5t301 57.5q169 0 301.5 -57.5t216 -160.5t127 -240t43.5 -301q0 -132 -27.5 -249t-84 -214t-138 -167t-194 -108.5t-246.5 -38.5q-166 0 -299 60t-217.5 165t-129 245.5t-44.5 304.5zM401 770q0 -299 96 -450.5t277 -151.5 q180 0 274.5 151t94.5 453q0 268 -93.5 405.5t-275.5 137.5q-180 0 -276.5 -138.5t-96.5 -406.5z" />
<glyph unicode="1" horiz-adv-x="944" d="M80 45v117q0 21 9 29t36 8h43q53 0 84 3t51.5 8t29 18.5t11 28t2.5 44.5v856q0 31 -9 39.5t-44 1.5l-162 -39q-45 -11 -45 29v141q0 20 9.5 28.5t39.5 16.5l363 101q57 14 102 14q29 0 39 -11.5t10 -41.5v-1135q0 -31 2.5 -45.5t10 -28.5t28.5 -18.5t51 -7t84 -2.5h45 q28 0 36.5 -8t8.5 -29v-117q0 -28 -9 -36.5t-36 -8.5h-745q-26 0 -35.5 8.5t-9.5 36.5z" />
<glyph unicode="2" horiz-adv-x="1337" d="M80 47v82q0 35 17.5 64t56.5 65l561 498q168 148 168 319q0 209 -269 209q-104 0 -196 -29q35 -51 35 -108q0 -82 -56.5 -131t-136.5 -49q-76 0 -127 48t-51 128q0 156 144.5 255t398.5 99q293 0 436 -110t143 -293q0 -124 -74.5 -241.5t-222.5 -250.5l-418 -375h291 q138 0 177.5 17.5t60.5 93.5l14 76q8 24 19.5 32.5t35.5 8.5h125q27 0 33.5 -9.5t3.5 -35.5l-35 -326q-6 -56 -23.5 -70t-66.5 -14h-997q-27 0 -37 10t-10 37z" />
<glyph unicode="3" horiz-adv-x="1312" d="M88 1153q0 158 148 252t395 94q265 0 410 -103t145 -282q0 -69 -21.5 -125.5t-54.5 -92.5t-76.5 -61.5t-84 -37.5t-81.5 -15q78 -7 142.5 -31.5t116 -67.5t80 -111.5t28.5 -157.5q0 -221 -170 -331t-473 -110q-141 0 -282.5 19.5t-188.5 40.5q-27 11 -27 47v149 q0 21 6.5 28t20.5 7q7 0 16 -2t22.5 -6t24.5 -6q200 -47 359 -47q179 0 266.5 56t87.5 171q0 232 -309 232h-76q-27 0 -35 6.5t-8 31.5v156q0 20 9 25.5t34 5.5h74q148 0 231.5 51.5t83.5 159.5q0 188 -266 188q-107 0 -201 -33q27 -46 27 -96q0 -82 -56.5 -131t-136.5 -49 q-76 0 -128 48.5t-52 127.5z" />
<glyph unicode="4" horiz-adv-x="1308" d="M27 362v89q0 35 12 47l758 940q20 25 33 33t38 8h232q33 0 39.5 -17t-23.5 -57l-729 -897h350v225q0 11 1.5 16.5t9 10t22.5 4.5h240q21 0 26.5 -6.5t5.5 -22.5v-227h193q36 0 46.5 -6.5t10.5 -32.5v-111q0 -24 -12.5 -34.5t-42.5 -10.5h-195v-8q0 -67 21.5 -86.5 t83.5 -19.5h35q28 0 36.5 -7.5t8.5 -27.5v-121q0 -26 -9 -34.5t-36 -8.5h-615q-27 0 -36 8.5t-9 34.5v121q0 20 8.5 27.5t36.5 7.5h64q61 0 83.5 21t22.5 85v8h-651q-37 0 -48 8t-11 41z" />
<glyph unicode="5" horiz-adv-x="1280" d="M68 63v164q0 37 24 37q6 0 53.5 -11.5t128 -21.5t177.5 -10q215 0 323.5 56t108.5 188q0 133 -95 191.5t-282 58.5q-103 0 -268 -13q-12 -2 -56 -2q-29 0 -38 14t-3 56l101 674q6 35 49 35h737q56 0 71.5 -13t16.5 -71l14 -283q0 -26 -7 -36.5t-27 -10.5h-113 q-22 0 -32.5 8.5t-16.5 34.5l-10 51q-13 65 -40 78.5t-122 13.5h-303l-51 -348q106 12 233 12q95 0 173 -11t152 -41t124.5 -78t81 -126t30.5 -182q0 -257 -175.5 -380.5t-500.5 -123.5q-120 0 -248 13.5t-176 29.5q-17 6 -24.5 13t-8.5 12.5t-1 21.5z" />
<glyph unicode="6" horiz-adv-x="1351" d="M88 674q0 425 188 626t566 201q118 0 293 -28q27 -6 31.5 -12t4.5 -31v-166q0 -21 -12 -25.5t-43 -1.5q-135 18 -225 18q-133 0 -223.5 -29t-149.5 -94.5t-89 -162.5t-40 -242q85 238 385 238q116 0 210 -30t163 -89t107 -152.5t38 -214.5q0 -257 -156.5 -379.5 t-441.5 -122.5q-174 0 -293.5 46.5t-187.5 140t-96.5 216.5t-28.5 294zM424 461q0 -128 73 -199.5t201 -71.5q123 0 200 70t77 205q0 126 -72 197t-201 71t-203.5 -72.5t-74.5 -199.5z" />
<glyph unicode="7" horiz-adv-x="1200" d="M55 1090l13 301q3 61 19.5 74.5t76.5 13.5h989q23 0 31 -8t8 -33v-60q0 -95 -70 -229l-583 -1106q-12 -25 -27 -34t-41 -9h-240q-27 0 -38 10.5t0 32.5l659 1208h-346q-134 0 -173.5 -14t-49.5 -74l-11 -78q-4 -23 -14.5 -32t-32.5 -9h-137q-26 0 -30.5 8.5t-2.5 37.5z " />
<glyph unicode="8" horiz-adv-x="1429" d="M76 426q0 78 23 144t63.5 112.5t86.5 78.5t101 54q-164 91 -164 295q0 189 141 289t388 100t386.5 -100t139.5 -289q0 -204 -164 -295q55 -22 101.5 -54t87 -78.5t63.5 -112t23 -144.5q0 -94 -33 -170.5t-90.5 -128.5t-138.5 -87t-174.5 -51t-200.5 -16t-201 16t-175 51 t-139 87t-91 128.5t-33 170.5zM397 428q0 -120 90 -181t228 -61t227.5 61t89.5 181q0 49 -17 92.5t-51.5 80.5t-94.5 60t-138 25h-35q-78 -2 -137.5 -25t-94 -60t-51 -80.5t-16.5 -92.5zM487 1108q0 -95 63.5 -146t164.5 -51q97 0 161 50t64 145t-62 146t-163 51t-164.5 -51 t-63.5 -144z" />
<glyph unicode="9" horiz-adv-x="1368" d="M74 999q0 252 153.5 377t438.5 125q154 0 265 -36.5t190 -117.5t118 -215t39 -325q0 -425 -188 -627.5t-566 -202.5q-182 0 -334 35q-12 3 -17 9.5t-5 21.5v178q0 19 11.5 24.5t37.5 0.5q16 -2 61 -8.5t92 -10.5t101 -4q262 0 374 114.5t132 393.5q-93 -217 -397 -217 q-232 0 -369 124.5t-137 360.5zM391 1014q0 -124 74.5 -196.5t200.5 -72.5q127 0 202.5 71.5t75.5 193.5q0 128 -74 195t-204 67q-128 0 -201.5 -67t-73.5 -191z" />
<glyph unicode=":" horiz-adv-x="587" d="M111 152q0 81 56.5 135.5t133.5 54.5q74 0 126 -48t52 -128q0 -82 -57.5 -134t-136.5 -52q-74 0 -124 48t-50 124zM111 883q0 82 56.5 137t133.5 55q74 0 126 -49t52 -129q0 -82 -57.5 -134t-136.5 -52q-73 0 -123.5 48.5t-50.5 123.5z" />
<glyph unicode=";" horiz-adv-x="610" d="M76 -293q-12 12 8 29q69 55 124.5 121t76.5 123q-71 5 -117.5 52t-46.5 120q0 81 58 135.5t134 54.5q75 0 127 -48t52 -128q0 -132 -91.5 -263.5t-238.5 -244.5q-14 -14 -23 -4zM121 883q0 81 58 136.5t134 55.5q75 0 127 -48.5t52 -129.5q0 -82 -57 -134t-136 -52 q-75 0 -126.5 48.5t-51.5 123.5z" />
<glyph unicode="&#x3c;" horiz-adv-x="1314" d="M68 571h364l668 -233q76 -25 92 -52.5t14 -115.5q-2 -49 -14.5 -72.5t-46.5 -23.5q-22 0 -72 16l-905 332q-63 23 -81.5 51.5t-18.5 97.5zM68 571q0 69 18.5 98t81.5 52l905 332q50 16 72 16q34 0 46.5 -23.5t14.5 -72.5q2 -88 -14 -115.5t-92 -52.5l-668 -234h-364z" />
<glyph unicode="=" horiz-adv-x="1183" d="M121 469q0 29 8.5 46.5t29.5 25.5t42 10t61 2h723q26 0 43 -10.5t24 -29.5t9 -34.5t2 -36.5q0 -41 -19 -62.5t-67 -21.5h-778q-78 0 -78 111zM121 848q0 29 8.5 46.5t29.5 25.5t42 10t61 2h723q26 0 43 -10.5t24 -29.5t9 -34.5t2 -36.5q0 -41 -19 -62.5t-67 -21.5h-778 q-78 0 -78 111z" />
<glyph unicode="&#x3e;" horiz-adv-x="1316" d="M106 170q2 -48 15.5 -72t48.5 -24q22 0 72 16l907 334q62 21 80 49.5t18 97.5h-364l-668 -233q-77 -25 -93 -52.5t-16 -115.5zM106 973q2 48 15.5 72t48.5 24q22 0 72 -16l907 -334q62 -21 80 -50t18 -98h-364l-668 234q-77 25 -93 52.5t-16 115.5z" />
<glyph unicode="?" horiz-adv-x="1222" d="M68 1139q0 49 18 97.5t59.5 96t102 83.5t152.5 58.5t204 22.5q258 0 405.5 -115.5t147.5 -291.5q0 -72 -25.5 -135.5t-66 -109.5t-90 -87t-98.5 -75.5t-89.5 -67.5t-66 -70.5t-25.5 -77.5v-21q0 -26 -16 -35.5t-49 -9.5h-158q-34 0 -48.5 15.5t-14.5 52.5q0 51 23.5 98 t61.5 84.5t83.5 74.5t91 75.5t83.5 79t61.5 92.5t23.5 110q0 86 -63 143.5t-185 57.5q-104 0 -180 -39q30 -48 30 -102q0 -82 -56 -131t-136 -49q-76 0 -128 48.5t-52 127.5zM365 152q0 80 56.5 132t133.5 52q75 0 128.5 -49.5t53.5 -130.5q0 -83 -57 -132t-137 -49 q-74 0 -126 49t-52 128z" />
<glyph unicode="@" horiz-adv-x="1976" d="M90 696q0 164 69.5 308.5t193.5 251t307 168t399 61.5q231 0 417.5 -78t298 -229.5t111.5 -352.5q0 -116 -39 -219t-104 -176t-152.5 -115.5t-183.5 -42.5q-198 0 -219 183q-121 -183 -318 -183q-64 0 -123 21t-108 61t-78 107t-29 151q0 99 40 193t112.5 168.5 t184.5 120t245 45.5q105 0 181.5 -22.5t120 -63.5t63.5 -90t20 -109q0 -19 -4 -59q-12 -77 -68 -277q-23 -88 48 -88q54 0 102 57.5t76 146t28 179.5q0 98 -33 181.5t-90.5 143.5t-135 102t-167 62.5t-186.5 20.5q-164 0 -300 -51t-225.5 -138.5t-138.5 -203t-49 -244.5 q0 -180 88 -315.5t243.5 -207t356.5 -71.5q125 0 260.5 23.5t237.5 66.5q18 9 27 12.5t20.5 5t16 -5.5t4.5 -22l-2 -74q0 -18 -3.5 -27.5t-19.5 -19.5q-69 -43 -232.5 -74.5t-332.5 -31.5q-268 0 -479 92t-331 263.5t-120 395.5zM766 590q0 -83 40 -125.5t112 -42.5 q130 0 234.5 123.5t104.5 283.5q0 80 -35 118t-108 38t-139.5 -36t-111 -92.5t-71 -127t-26.5 -139.5z" />
<glyph unicode="A" horiz-adv-x="1658" d="M-8 43v107q0 23 9 34.5t38 14.5l61 2q34 2 52.5 20t44.5 84l442 1143q8 21 17.5 27t41.5 6h260q23 0 34 -6t20 -25l452 -1131q32 -80 52 -98.5t77 -21.5h37q31 -1 41 -10.5t10 -30.5v-115q0 -26 -10 -34.5t-39 -8.5h-567q-30 0 -38.5 8t-8.5 35v104q0 21 9 30.5t38 12.5 h25q44 5 62.5 16t18.5 36q0 19 -16 65l-61 154h-596l-66 -170q-10 -26 -10 -44q0 -17 10 -27q18 -20 74 -25l22 -2q30 -3 40 -13.5t10 -32.5v-104q0 -26 -10 -34.5t-40 -8.5h-491q-26 0 -35.5 8t-9.5 35zM571 655h447l-225 576z" />
<glyph unicode="B" horiz-adv-x="1538" d="M88 43v107q0 49 39 49q91 0 120 20t29 86v873q0 52 -16.5 73.5t-58.5 26.5q-20 2 -72 2q-24 0 -32.5 9.5t-8.5 31.5v115q0 26 9.5 34.5t37.5 8.5h617q315 0 470.5 -83t155.5 -282q0 -76 -25 -136.5t-68 -98t-95.5 -59.5t-112.5 -29v-3q179 -18 284 -112.5t105 -251.5 q0 -78 -18.5 -140t-50.5 -106t-83 -76.5t-107 -51.5t-132.5 -30.5t-150 -15.5t-168.5 -4h-623q-24 0 -34.5 9t-10.5 34zM580 199h219q55 0 98.5 4.5t90 18.5t77 37.5t50.5 65t20 97.5q0 76 -23 126.5t-72 78t-110.5 38.5t-151.5 11h-198v-477zM580 891h204q145 0 208 47.5 t63 159.5q0 55 -19.5 92t-58 56t-83 26.5t-106.5 7.5h-208v-389z" />
<glyph unicode="C" horiz-adv-x="1560" d="M74 739q0 164 55 302.5t159 240t263 158.5t358 57q133 0 237 -22.5t167 -58t104 -84t56.5 -95.5t15.5 -98q0 -83 -56.5 -132t-138.5 -49q-74 0 -126 49t-52 128q0 67 43 116q-101 33 -227 33q-112 0 -203 -29t-152.5 -80t-103.5 -121.5t-61 -151t-19 -171.5 q0 -116 32 -209.5t98 -164.5t175 -109.5t254 -38.5q92 0 169 9.5t140 29t92 31.5t77 34q19 10 31 15t24.5 6t18 -8t5.5 -29v-152q0 -10 -1.5 -16t-9.5 -15.5t-23 -17.5q-75 -45 -219 -82t-353 -37q-146 0 -271.5 29t-229 90t-176 150t-112.5 214.5t-40 278.5z" />
<glyph unicode="D" horiz-adv-x="1720" d="M88 43v107q0 49 39 49q91 0 120 20t29 86v873q0 52 -16.5 73.5t-58.5 26.5q-20 2 -72 2q-24 0 -32.5 9.5t-8.5 31.5v115q0 26 9.5 34.5t37.5 8.5h594q465 0 690.5 -184.5t225.5 -557.5q0 -372 -236.5 -554.5t-685.5 -182.5h-590q-24 0 -34.5 9t-10.5 34zM580 215h141 q315 0 459.5 122t144.5 400q0 150 -38.5 254t-118 166t-191 89.5t-268.5 27.5h-129v-1059z" />
<glyph unicode="E" horiz-adv-x="1443" d="M88 43v107q0 49 39 49q91 0 120 20t29 86v873q0 52 -16.5 73.5t-58.5 26.5q-20 2 -72 2q-24 0 -32.5 9.5t-8.5 31.5v115q0 26 9.5 34.5t37.5 8.5h1071q64 0 82 -15t21 -82l16 -264q2 -29 -6 -39t-37 -10h-125q-26 0 -36.5 8.5t-14.5 36.5l-10 74q-9 67 -58 81.5 t-219 14.5h-239v-459h159q70 0 80 58l8 57q4 29 12 36t35 7h113q25 0 31 -9t6 -36v-418q0 -27 -6 -36t-29 -9h-115q-25 0 -33.5 8t-13.5 33l-10 59q-6 33 -25.5 44.5t-52.5 11.5h-159v-436h323q58 0 90 3t58.5 9.5t41 24t25 40.5t23.5 66l14 76q6 23 18 32t37 9h123 q28 1 35 -9q5 -7 5 -22q0 -6 -1 -14l-35 -326q-7 -56 -24.5 -70t-65.5 -14h-1114q-24 0 -34.5 9t-10.5 34z" />
<glyph unicode="F" horiz-adv-x="1400" d="M86 1321v115q0 26 10.5 34.5t38.5 8.5h1110q63 0 80.5 -15.5t20.5 -81.5l16 -264q1 -8 1 -14q0 -17 -6 -25q-8 -10 -38 -10h-125q-25 0 -36 9t-15 36l-10 74q-9 67 -58 81.5t-219 14.5h-278v-475h200q33 0 52.5 12t25.5 45l8 58q4 29 13 36t36 7h111q25 0 31 -9t6 -36 v-418q0 -27 -6 -36t-29 -9h-113q-26 0 -36 8t-13 33l-8 59q-6 33 -25 44t-53 11h-200v-329q3 -54 26 -70t82 -16h33q29 0 38 -7.5t9 -27.5v-121q0 -26 -9 -34.5t-38 -8.5h-586q-27 0 -36 8.5t-9 34.5v121q0 20 8.5 27.5t36.5 7.5h33q62 0 85 21t23 85v873q0 52 -16 74 t-59 26q-18 2 -72 2q-24 0 -32.5 9.5t-8.5 31.5z" />
<glyph unicode="G" horiz-adv-x="1640" d="M74 741q0 165 55.5 303t159 239t262.5 157.5t356 56.5q137 0 245.5 -23t176.5 -59.5t112.5 -86.5t62.5 -100.5t18 -105.5q0 -83 -56.5 -131.5t-138.5 -48.5q-75 0 -126.5 48.5t-51.5 127.5q0 74 49 123q-111 43 -268 43q-136 0 -241 -43.5t-168.5 -120.5t-95.5 -174.5 t-32 -212.5q0 -242 134 -384t388 -142q178 0 334 78v172q0 57 -63 57h-178q-45 0 -45 47v115q0 49 41 49h495q37 0 37 -33v-637q0 -55 -47 -55h-107q-29 0 -44.5 9t-24.5 32l-13 27q-182 -91 -403 -91q-143 0 -266.5 29t-226.5 90t-176 150t-113.5 215t-40.5 280z" />
<glyph unicode="H" horiz-adv-x="1847" d="M86 43v121q0 20 9.5 27.5t37.5 7.5h33q61 0 84.5 21t23.5 85v869q0 64 -23 85t-85 21h-35q-27 0 -36 8t-9 29v119q0 26 9 34.5t36 8.5h588q27 0 36 -8.5t9 -34.5v-119q0 -22 -8.5 -29.5t-36.5 -7.5h-39q-61 0 -81.5 -19t-20.5 -87v-332h692v332q0 64 -22.5 85t-84.5 21 h-35q-28 0 -36.5 8t-8.5 29v119q0 26 9 34.5t36 8.5h586q28 0 36.5 -8.5t8.5 -34.5v-119q0 -22 -8.5 -29.5t-36.5 -7.5h-37q-63 0 -83.5 -19t-20.5 -87v-869q0 -67 22 -86.5t84 -19.5h37q28 0 36.5 -7.5t8.5 -27.5v-121q0 -26 -9 -34.5t-36 -8.5h-588q-27 0 -36 8.5t-9 34.5 v121q0 20 8.5 27.5t36.5 7.5h35q61 0 84 21t23 85v342h-692v-342q0 -68 21.5 -87t84.5 -19h35q29 0 38 -7.5t9 -27.5v-121q0 -26 -9.5 -34.5t-37.5 -8.5h-586q-28 0 -37.5 8.5t-9.5 34.5z" />
<glyph unicode="I" horiz-adv-x="851" d="M86 43v121q0 20 9.5 27.5t37.5 7.5h33q61 0 84.5 21t23.5 85v869q0 64 -23 85t-85 21h-35q-27 0 -36 8t-9 29v119q0 26 9 34.5t36 8.5h588q27 0 36 -8.5t9 -34.5v-119q0 -22 -8.5 -29.5t-36.5 -7.5h-39q-61 0 -81.5 -19t-20.5 -87v-869q0 -68 21.5 -87t84.5 -19h35 q29 0 38 -7.5t9 -27.5v-121q0 -26 -9.5 -34.5t-37.5 -8.5h-586q-28 0 -37.5 8.5t-9.5 34.5z" />
<glyph unicode="J" horiz-adv-x="1284" d="M39 358q0 84 52 135.5t138 51.5q83 0 132 -50t49 -133q0 -96 -80 -149q64 -27 147 -27q141 0 206 93t65 284v629q-3 52 -26 70t-79 18h-35q-29 0 -38 8t-9 29v119q0 26 9.5 34.5t37.5 8.5h584q28 0 37.5 -8.5t9.5 -34.5v-119q0 -22 -8.5 -29.5t-38.5 -7.5h-37 q-57 0 -79 -16.5t-25 -71.5v-653q0 -263 -129.5 -410t-399.5 -147q-111 0 -196.5 20.5t-138.5 55t-87 84t-47.5 102t-13.5 114.5z" />
<glyph unicode="K" horiz-adv-x="1689" d="M86 43v121q0 20 9.5 27.5t37.5 7.5h33q61 0 84.5 21t23.5 85v869q0 64 -23 85t-85 21h-35q-27 0 -36 8t-9 29v119q0 26 9 34.5t36 8.5h588q27 0 36 -8.5t9 -34.5v-119q0 -22 -8.5 -29.5t-36.5 -7.5h-39q-61 0 -81.5 -19t-20.5 -87v-410l499 457q35 32 35 47q0 7 -8 9 l-27 3h-53q-43 0 -43 55v101q0 26 8.5 34.5t34.5 8.5h559q26 0 34.5 -8.5t8.5 -34.5v-109q0 -47 -43 -47h-100q-73 0 -160 -78l-367 -321q72 -5 128 -21t102.5 -50t82.5 -77.5t71 -116t64 -151t66 -195.5q17 -35 39.5 -48t59.5 -13q34 0 76 18q19 8 26.5 1.5t7.5 -33.5v-125 q0 -24 -7.5 -36t-31.5 -22q-75 -35 -163 -35q-36 0 -62 2t-61.5 11.5t-62 26.5t-54 49t-47.5 77q-17 38 -43 108.5t-46.5 128.5t-53.5 125t-67 113t-84 78.5t-108 34.5l-210 -184v-242q0 -68 21.5 -87t84.5 -19h35q29 0 38 -7.5t9 -27.5v-121q0 -26 -9.5 -34.5t-37.5 -8.5 h-586q-28 0 -37.5 8.5t-9.5 34.5z" />
<glyph unicode="L" horiz-adv-x="1396" d="M88 43v107q0 49 39 49q87 0 116.5 17.5t32.5 74.5v883q0 64 -23 85t-85 21h-35q-27 0 -36 8t-9 29v119q0 26 9 34.5t36 8.5h588q27 0 36 -8.5t9 -34.5v-119q0 -22 -8.5 -29.5t-36.5 -7.5h-39q-61 0 -81.5 -19t-20.5 -87v-979h309q58 0 90 3t58.5 9.5t40.5 24.5t24.5 40.5 t23.5 65.5l15 76q6 23 18 32t37 9h123q25 1 33 -9q6 -8 6 -26v-10l-35 -326q-7 -56 -24.5 -70t-65.5 -14h-1100q-24 0 -34.5 9t-10.5 34z" />
<glyph unicode="M" horiz-adv-x="2205" d="M76 41v123q0 21 9 28t36 7h37q66 0 88 15t22 71v903q-3 65 -19 81t-65 19h-30q-25 1 -35 11t-10 28v111q0 24 10 32.5t35 8.5h444q39 0 57 -49l480 -1203l467 1211q9 24 22.5 32.5t46.5 8.5h397q26 0 34.5 -8t8.5 -33v-103q0 -45 -43 -47l-53 -2q-17 -1 -28.5 -4 t-26.5 -12t-23 -29.5t-8 -52.5v-887q0 -67 14 -84.5t70 -17.5h60q30 0 41.5 -8t11.5 -29v-121q0 -24 -12 -32.5t-41 -8.5h-564q-27 0 -37 8.5t-10 32.5v121q0 21 9 29t38 8h45q58 0 80.5 20.5t22.5 81.5v680l-375 -963q-8 -19 -18.5 -24.5t-44.5 -5.5h-252q-26 0 -37.5 5.5 t-20.5 22.5l-409 1006v-737q0 -58 20.5 -72t85.5 -14h41q27 0 36 -7t9 -28v-123q0 -24 -10 -32.5t-35 -8.5h-526q-26 0 -35.5 8t-9.5 33z" />
<glyph unicode="N" horiz-adv-x="1845" d="M86 43v119q0 21 8.5 29t36.5 8h33q63 0 86.5 19.5t23.5 78.5v895q-3 53 -26 70.5t-78 17.5h-37q-28 0 -36.5 7.5t-8.5 27.5v123q0 24 10 32.5t35 8.5h326q48 0 76 -31l821 -952v686q0 62 -23 80t-86 18h-35q-28 0 -36.5 7t-8.5 28v121q0 26 9 34.5t36 8.5h523q27 0 36 -8 t9 -35v-119q0 -21 -8.5 -29t-36.5 -8h-33q-61 0 -85 -19.5t-24 -78.5v-1166q0 -19 -9.5 -25.5t-41.5 -6.5h-78q-24 0 -38.5 4.5t-28.5 21.5l-885 994v-707q0 -62 21.5 -80t84.5 -18h35q28 0 36.5 -7t8.5 -28v-121q0 -26 -9 -34.5t-36 -8.5h-522q-27 0 -36 8t-9 35z" />
<glyph unicode="O" d="M74 735q0 111 23.5 214t83.5 205.5t151 177.5t237.5 122t331.5 47q179 0 322.5 -42.5t237.5 -113.5t157 -170t90 -207t27 -229q0 -77 -12 -151.5t-40.5 -151.5t-71.5 -144t-110 -126.5t-151 -101.5t-198.5 -66.5t-248.5 -24.5q-179 0 -322 42.5t-236.5 114t-155.5 170.5 t-88.5 206.5t-26.5 228.5zM393 737q0 -75 13 -145.5t48 -146.5t90.5 -132t148.5 -92.5t212 -36.5q116 0 206.5 34t146 88t91.5 128.5t50 147.5t14 153q0 74 -12.5 144.5t-47.5 147.5t-90 133t-148 93t-214 37q-114 0 -204 -33.5t-146 -87.5t-92.5 -128t-51 -148.5 t-14.5 -155.5z" />
<glyph unicode="P" horiz-adv-x="1505" d="M86 1321v115q0 26 10.5 34.5t38.5 8.5h559q155 0 271.5 -13.5t211 -45.5t153.5 -84t90.5 -129.5t31.5 -182.5q0 -154 -76.5 -260.5t-210 -156.5t-315.5 -50h-272v-252q0 -67 22 -86.5t86 -19.5h33q29 0 38 -7.5t9 -27.5v-121q0 -26 -9 -34.5t-38 -8.5h-586q-27 0 -36 8.5 t-9 34.5v121q0 20 8.5 27.5t36.5 7.5h33q62 0 85 21t23 85v873q0 52 -16 74t-59 26q-18 2 -72 2q-24 0 -32.5 9.5t-8.5 31.5zM578 752h163q392 0 392 272q0 139 -99.5 199.5t-308.5 60.5h-147v-532z" />
<glyph unicode="Q" d="M74 735q0 111 23.5 214t83.5 205.5t151 177.5t237.5 122t331.5 47q179 0 322.5 -42.5t237.5 -113.5t157 -170t90 -207t27 -229q0 -104 -23 -202.5t-71.5 -194.5t-137.5 -175.5t-209 -127.5q70 -33 146 -109q37 -38 69 -56.5t74 -18.5q49 0 96 18q19 7 28 0t9 -33v-127 q0 -21 -9.5 -33.5t-31.5 -21.5q-79 -35 -168 -35q-108 0 -193 38t-171 134l-43 43t-41 37.5t-51 40t-53 29.5t-68 28q-176 2 -316 45t-231.5 114.5t-152.5 170t-87 205.5t-26 227zM393 737q0 -75 13 -145.5t48 -146.5t90.5 -132t148.5 -92.5t212 -36.5q116 0 206.5 34 t146 88t91.5 128.5t50 147.5t14 153q0 74 -12.5 144.5t-47.5 147.5t-90 133t-148 93t-214 37q-114 0 -204 -33.5t-146 -87.5t-92.5 -128t-51 -148.5t-14.5 -155.5z" />
<glyph unicode="R" horiz-adv-x="1533" d="M86 43v121q0 20 9.5 27.5t37.5 7.5h33q61 0 84.5 21t23.5 85v873q0 52 -16.5 73.5t-58.5 26.5q-20 2 -72 2q-24 0 -32.5 9.5t-8.5 31.5v115q0 26 9.5 34.5t37.5 8.5h559q177 0 299 -21.5t208.5 -71.5t126.5 -134t40 -208q0 -160 -85 -263.5t-237 -147.5 q70 -40 126.5 -125.5t129.5 -253.5q16 -36 38 -48.5t53 -12.5q40 0 86 16q34 11 34 -21v-118q0 -24 -8.5 -36t-32.5 -22q-72 -35 -190 -35q-42 0 -71 4.5t-65.5 19.5t-68 50t-57.5 90q-13 27 -38.5 88t-44 103t-51 96.5t-64.5 88t-78.5 57.5t-98.5 24h-65v-293 q0 -68 21.5 -87t84.5 -19h35q29 0 38 -7.5t9 -27.5v-121q0 -26 -9.5 -34.5t-37.5 -8.5h-586q-28 0 -37.5 8.5t-9.5 34.5zM578 793h147q163 0 241 62.5t78 188.5q0 127 -83 183.5t-252 56.5h-131v-491z" />
<glyph unicode="S" horiz-adv-x="1378" d="M57 326q0 85 52.5 136.5t140.5 51.5q78 0 129 -49t51 -131q0 -70 -43 -119q100 -37 279 -37q71 0 127 11t100 34t68 63t24 95q0 64 -29.5 111.5t-79.5 77t-115 52t-136.5 41.5t-143 39.5t-136.5 52.5t-115 74t-79.5 110t-29.5 155q0 203 155.5 304t432.5 101 q280 0 426.5 -92.5t146.5 -255.5q0 -83 -57.5 -132.5t-137.5 -49.5q-76 0 -128 48.5t-52 127.5q0 67 37 110q-101 39 -239 39q-279 0 -279 -155q0 -51 29.5 -89t79.5 -62t115 -44t137 -40.5t144 -44.5t137 -61.5t115 -87.5t79.5 -127t29.5 -175q0 -435 -633 -435 q-293 0 -447 90t-155 263z" />
<glyph unicode="T" horiz-adv-x="1464" d="M45 1102l16 293q3 58 17 71t67 13h1172q52 0 66.5 -13t17.5 -71l18 -293q1 -7 1 -13q0 -17 -5 -23q-6 -8 -35 -9h-131q-26 0 -36 8t-13 33l-12 86q-7 58 -45.5 71t-173.5 13h-84v-963q0 -68 21 -87t83 -19h37q28 0 36.5 -7.5t8.5 -27.5v-121q0 -26 -9 -34.5t-36 -8.5 h-588q-27 0 -36 8.5t-9 34.5v121q0 20 9 27.5t36 7.5h35q61 0 84 21t23 85v963h-93q-130 0 -167 -12.5t-46 -71.5l-10 -86q-4 -24 -15 -32.5t-36 -8.5h-131q-27 0 -33 9q-5 7 -5 24q0 5 1 12z" />
<glyph unicode="U" horiz-adv-x="1810" d="M45 1317v119q0 26 9 34.5t36 8.5h586q28 0 37.5 -8.5t9.5 -34.5v-119q0 -22 -8.5 -29.5t-38.5 -7.5h-37q-62 0 -83 -19t-21 -87v-599q0 -180 99 -269t288 -89q191 0 296 92t105 271v610q0 55 -22 72.5t-82 17.5h-37q-27 0 -37 8t-10 29v119q0 25 10.5 34t36.5 9h536 q28 0 37.5 -8.5t9.5 -34.5v-119q0 -22 -9 -29.5t-38 -7.5h-37q-62 0 -83 -16t-21 -74v-621q0 -292 -170 -437.5t-494 -145.5q-328 0 -504 140.5t-176 412.5v635q0 64 -23 85t-85 21h-35q-28 0 -36.5 8t-8.5 29z" />
<glyph unicode="V" horiz-adv-x="1595" d="M-23 1321v115q0 26 9.5 34.5t38.5 8.5h553q30 0 39.5 -8t9.5 -35v-105q0 -19 -10.5 -29t-38.5 -14h-21q-44 -5 -62 -15.5t-18 -35.5q0 -17 17 -66l342 -933l340 950q10 26 10 44t-10 28q-18 20 -70 24l-21 2q-29 3 -38 13t-9 32v105q0 26 9.5 34.5t37.5 8.5h480 q26 0 34.5 -8t8.5 -35v-107q0 -23 -9 -34.5t-38 -14.5l-56 -2q-32 -2 -50.5 -20t-41.5 -84l-426 -1160q-6 -20 -15 -25t-40 -5h-262q-24 0 -34.5 5.5t-17.5 22.5l-434 1147q-30 80 -50 99t-75 22h-34q-29 1 -38.5 10t-9.5 31z" />
<glyph unicode="W" horiz-adv-x="2338" d="M-12 1346v92q0 25 8 33t33 8h587q26 0 34.5 -8t8.5 -33v-115q0 -41 -38 -41q-75 0 -99 -6.5t-24 -34.5q0 -16 14 -70l252 -897l293 1158q6 30 14.5 38.5t34.5 8.5h237q26 0 34 -8.5t16 -40.5l309 -1076l223 830q12 40 12 59q0 26 -22 32.5t-92 6.5q-25 0 -34 10t-9 31 v115q0 28 8 34.5t47 6.5h465q27 0 35 -8t8 -35v-107q0 -14 -2.5 -23t-12.5 -16.5t-28 -7.5q-46 0 -64.5 -1.5t-37 -14t-27 -33t-21.5 -66.5l-323 -1124q-11 -40 -22.5 -49.5t-49.5 -9.5h-219q-16 0 -26.5 3.5t-17.5 14.5t-9.5 17t-7.5 24l-289 1022l-254 -1022 q-9 -38 -20 -48.5t-38 -10.5h-290q-24 0 -37 12t-23 47l-340 1116q-26 85 -47 104t-82 19q-44 0 -55.5 12t-11.5 52z" />
<glyph unicode="X" horiz-adv-x="1593" d="M8 43v111q0 45 45 45h47q40 0 71 17t81 75l383 450l-340 422q-57 69 -97 93t-87 24h-31q-45 0 -45 45v113q0 26 9 33.5t36 7.5h541q27 0 36 -7.5t9 -33.5v-105q0 -47 -45 -47h-31q-18 0 -18 -7q-1 -8 34 -52l215 -264l221 260q20 25 21.5 37.5t-9 16t-34.5 3.5h-37 q-43 0 -43 51v105q0 26 8.5 34.5t34.5 8.5h498q26 0 34.5 -8.5t8.5 -34.5v-109q0 -47 -43 -47h-29q-43 0 -73.5 -14t-73.5 -60l-347 -411l390 -478q58 -69 97.5 -92.5t82.5 -23.5h28q29 0 39.5 -12.5t10.5 -34.5v-111q0 -26 -9 -34.5t-38 -8.5h-537q-29 0 -38 8.5t-9 34.5 v104q0 22 9.5 35t37.5 13h29q18 0 18 7q-2 10 -41 56l-256 315l-264 -315q-21 -25 -22.5 -38.5t9.5 -17t35 -3.5h54q45 0 45 -52v-104q0 -26 -9 -34.5t-36 -8.5h-531q-27 0 -36 8.5t-9 34.5z" />
<glyph unicode="Y" horiz-adv-x="1488" d="M-10 1327v109q0 26 8.5 34.5t34.5 8.5h549q27 0 36 -8t9 -35v-103q0 -47 -45 -47h-29q-51 0 -51 -27q0 -15 16 -38l258 -426l281 428q15 22 12 34.5t-13.5 17.5t-27.5 5h-35q-45 0 -45 55v101q0 27 9 35t36 8h461q28 0 36.5 -8.5t8.5 -34.5v-109q0 -47 -45 -47h-45 q-26 0 -43 -13t-53 -63l-416 -583v-316q0 -68 21 -87t83 -19h37q28 0 36.5 -7.5t8.5 -27.5v-121q0 -26 -9 -34.5t-36 -8.5h-587q-27 0 -36 8.5t-9 34.5v121q0 20 9 27.5t36 7.5h34q56 0 80 18t27 70v299l-377 577q-48 70 -78 93.5t-65 23.5h-35q-28 0 -37.5 12t-9.5 35z" />
<glyph unicode="Z" horiz-adv-x="1394" d="M74 45v113q0 27 10 39l825 1087h-432q-79 0 -110 -40.5t-62 -162.5q-6 -21 -16 -30t-31 -9h-139q-37 0 -31 43l21 361q3 18 14 25.5t35 7.5h1093q24 0 31.5 -11.5t7.5 -33.5v-76q0 -40 -28 -80l-818 -1083h482q77 0 106.5 34.5t83.5 180.5q6 21 16.5 30t34.5 9h131 q34 0 34 -31q0 -5 -1 -10l-43 -375q-3 -18 -14 -25.5t-35 -7.5h-1137q-17 1 -22.5 11.5t-5.5 33.5z" />
<glyph unicode="[" horiz-adv-x="720" d="M176 -258v1720q0 38 14.5 53t51.5 15h354q63 0 63 -45v-94q0 -34 -12 -45t-47 -11h-137v-1466h137q34 0 46.5 -10.5t12.5 -42.5v-95q0 -47 -63 -47h-354q-37 0 -51.5 15t-14.5 53z" />
<glyph unicode="\" horiz-adv-x="1038" d="M55 1423q0 37 26.5 54.5t94.5 17.5q100 0 130.5 -12.5t51.5 -59.5l611 -1319q14 -32 14 -51q0 -76 -143 -76q-84 0 -112 13t-48 59l-612 1325q-13 29 -13 49z" />
<glyph unicode="]" horiz-adv-x="720" d="M61 -184q0 32 12.5 42.5t47.5 10.5h137v1466h-137q-35 0 -47.5 11t-12.5 45v94q0 45 64 45h354q37 0 51.5 -15t14.5 -53v-1720q0 -38 -14.5 -53t-51.5 -15h-354q-64 0 -64 47v95z" />
<glyph unicode="^" horiz-adv-x="1247" d="M80 882.5q2 17.5 20 45.5l369 549q27 40 56 50.5t98 10.5v-250l-261 -370q-34 -52 -61.5 -64t-116.5 -12q-36 0 -57 3t-35 11.5t-12 26zM623 1288l260 -370q34 -52 61.5 -64t116.5 -12q36 0 57 3t35 11.5t12 26t-20 45.5l-369 549q-27 40 -55 50.5t-98 10.5v-250z" />
<glyph unicode="_" horiz-adv-x="1849" d="M115 -111q0 57 25.5 71.5t90.5 14.5h1459q43 0 43 -112q0 -84 -52 -84h-1521q-45 0 -45 110z" />
<glyph unicode="`" horiz-adv-x="616" d="M55 1430l72 151q9 21 24 23.5t46 -11.5l385 -172q19 -8 20.5 -21t-10.5 -36l-23 -53q-14 -32 -63 -21l-432 94q-43 10 -19 46z" />
<glyph unicode="a" horiz-adv-x="1300" d="M68 295q0 87 32.5 151.5t88 105t142 65t182.5 33.5t222 9h86v56q0 100 -49.5 144t-165.5 44q-75 0 -160 -20q5 -25 5 -33q0 -72 -50 -118t-120 -46q-66 0 -110 42.5t-44 111.5q0 144 120.5 209t360.5 65q128 0 215.5 -17.5t155 -62t99.5 -125t32 -202.5v-418 q0 -94 68 -94q22 0 42 4t29 4q27 3 27 -21v-123q0 -39 -33 -49q-55 -22 -176 -22q-175 0 -227 125q-132 -125 -387 -125q-385 0 -385 307zM354 303q0 -119 170 -119q134 0 215.5 72t81.5 199v22h-86q-187 0 -284 -39.5t-97 -134.5z" />
<glyph unicode="b" horiz-adv-x="1335" d="M-31 1395v104q0 27 8.5 35t36.5 10l365 19q30 0 40.5 -13t10.5 -45v-563q103 166 363 166q224 0 345.5 -135.5t121.5 -413.5q0 -103 -17.5 -187.5t-60 -160t-110 -127t-172 -81.5t-241.5 -30q-165 0 -302.5 32.5t-194.5 66.5q-12 6 -15.5 14.5t-3.5 26.5v1147 q0 45 -15 63t-54 20l-60 3q-27 1 -36 13.5t-9 35.5zM426 223q108 -33 221 -33q152 0 226.5 86.5t74.5 272.5q0 57 -5 103t-20.5 92t-40.5 77t-68 50.5t-101 19.5q-122 0 -201 -93t-86 -263v-312z" />
<glyph unicode="c" horiz-adv-x="1243" d="M70 530q0 283 170.5 433.5t461.5 150.5q100 0 180.5 -19t132 -49t86.5 -70t49.5 -79.5t14.5 -79.5q0 -77 -47.5 -126.5t-130.5 -49.5q-80 0 -131 47t-51 123q0 45 18 86q-70 8 -118 8q-89 0 -154 -27.5t-101.5 -77.5t-53.5 -110.5t-17 -134.5q0 -176 92.5 -259t296.5 -83 q30 0 61 2t54.5 4.5t51.5 7.5t44.5 8.5t41.5 10t34 9.5t31 9.5t24 7.5q44 14 57 9t13 -37v-131q0 -27 -6 -38t-27 -20q-56 -24 -169 -47.5t-257 -23.5q-328 0 -489.5 140.5t-161.5 405.5z" />
<glyph unicode="d" horiz-adv-x="1396" d="M76 489q0 303 142.5 461t395.5 158q169 0 291 -82v234q0 46 -15.5 63.5t-55.5 19.5l-58 3q-27 1 -36 13.5t-9 35.5v104q0 27 8.5 35t36.5 10l363 19q30 0 41.5 -13t11.5 -45v-1216q0 -94 68 -94q23 0 43.5 4t29.5 4q25 3 25 -21v-123q0 -39 -33 -49q-55 -22 -174 -22 q-187 0 -233 141q-131 -156 -383 -156q-459 0 -459 516zM375 508q0 -151 57.5 -235.5t179.5 -84.5q262 0 293 344v295q-36 26 -100.5 45t-132.5 19q-151 0 -224 -102.5t-73 -280.5z" />
<glyph unicode="e" horiz-adv-x="1234" d="M70 543q0 260 147.5 415.5t421.5 155.5q239 0 368.5 -94t129.5 -266q0 -161 -120.5 -253.5t-365.5 -92.5q-149 0 -270 26q20 -125 98.5 -181t237.5 -56q178 0 307 45q75 28 92 28q23 0 23 -28v-131q0 -20 -9.5 -32.5t-37.5 -25.5q-62 -29 -173.5 -48t-226.5 -19 q-161 0 -282 40.5t-194.5 116t-109.5 175.5t-36 225zM377 623q142 -29 248 -29q249 0 249 168q0 83 -59 120.5t-176 37.5q-234 0 -262 -297z" />
<glyph unicode="f" horiz-adv-x="878" d="M57 928v88q0 32 9 44.5t34 12.5h156v113q0 207 105 312.5t335 105.5q165 0 262 -71t101 -208v-6q0 -72 -50.5 -118t-121.5 -46q-65 0 -109.5 42.5t-44.5 111.5q0 59 37 106q-6 0 -20 1t-21 1q-95 0 -140.5 -50.5t-45.5 -166.5v-127h239q36 0 47 -6.5t11 -32.5v-110 q0 -24 -13 -34.5t-43 -10.5h-241v-598q3 -52 25 -67t81 -15h39q28 0 36.5 -7.5t8.5 -27.5v-121q0 -26 -9 -34.5t-36 -8.5h-579q-27 0 -36.5 8.5t-9.5 34.5v121q0 20 9 27.5t37 7.5h38q64 0 86.5 18.5t22.5 83.5v578h-139q-38 0 -49 8t-11 41z" />
<glyph unicode="g" horiz-adv-x="1392" d="M80 489q0 303 141.5 461t394.5 158q171 0 293 -82v12q0 32 11 45t41 13l348 -23q28 -2 36.5 -9.5t8.5 -33.5v-108q0 -43 -45 -45l-41 -3q-39 -5 -55 -19.5t-17 -53.5v-760q0 -142 -45.5 -249t-130 -172.5t-198.5 -97.5t-257 -32q-483 0 -483 313q0 58 47 97t113 39 q67 0 113 -38.5t46 -101.5q0 -40 -20 -73q91 -25 178 -25q350 0 350 315v99q-134 -142 -370 -142q-459 0 -459 516zM379 508q0 -151 58.5 -235.5t178.5 -84.5q257 0 293 344v295q-36 27 -100.5 45.5t-134.5 18.5q-150 0 -222.5 -102.5t-72.5 -280.5z" />
<glyph unicode="h" horiz-adv-x="1458" d="M29 43v121q0 20 8.5 27.5t36.5 7.5h39q58 0 80.5 15.5t25.5 66.5v981q0 46 -15.5 64t-53.5 20l-62 2q-26 1 -34.5 13.5t-8.5 35.5v104q0 27 8 35t35 10l367 19q30 0 41.5 -13t11.5 -45v-561q102 168 391 168q365 0 365 -358v-467q0 -94 67 -94q23 0 44 4t30 4 q25 3 25 -21v-123q0 -39 -33 -49q-55 -22 -176 -22q-47 0 -86.5 10.5t-77 35t-59 73t-21.5 116.5v496q0 77 -44 121.5t-138 44.5q-143 0 -215 -112.5t-72 -321.5v-170q3 -52 25 -67t81 -15h37q28 0 37.5 -7.5t9.5 -27.5v-121q0 -26 -10 -34.5t-37 -8.5h-577q-27 0 -36 8.5 t-9 34.5z" />
<glyph unicode="i" horiz-adv-x="757" d="M59 43v121q0 20 8.5 27.5t36.5 7.5h39q59 0 81.5 15t25.5 67v522q-3 38 -18.5 53.5t-51.5 17.5l-59 3q-27 1 -36 13.5t-9 35.5v104q0 27 8.5 35t36.5 10l364 19q30 0 42 -13.5t12 -44.5v-755q3 -52 25 -67t81 -15h39q28 0 36.5 -7.5t8.5 -27.5v-121q0 -26 -9 -34.5 t-36 -8.5h-580q-27 0 -36 8.5t-9 34.5zM207 1399q0 83 54 134.5t134 51.5q71 0 120.5 -48t49.5 -124q0 -81 -56.5 -130.5t-135.5 -49.5q-71 0 -118.5 45t-47.5 121z" />
<glyph unicode="j" horiz-adv-x="661" d="M-244 -268q0 72 47 119t119 47q68 0 113 -43t45 -113q0 -51 -31 -94q88 4 129 53t41 141v949q0 45 -16.5 62.5t-55.5 20.5l-59 3q-43 2 -43 47v106q0 27 8 34t35 9l367 21q30 0 40.5 -13t10.5 -45v-1132q0 -203 -105.5 -316.5t-322.5 -113.5q-157 0 -239.5 74.5 t-82.5 183.5zM172 1399q0 83 54.5 134.5t133.5 51.5q71 0 120.5 -48t49.5 -124q0 -81 -56.5 -130.5t-135.5 -49.5q-71 0 -118.5 45t-47.5 121z" />
<glyph unicode="k" horiz-adv-x="1409" d="M29 43v121q0 20 8.5 27.5t36.5 7.5h35q60 0 81 18.5t21 83.5v959q0 45 -15.5 63t-52.5 20l-55 3q-26 1 -34.5 13.5t-8.5 35.5v104q0 27 8 35t35 10l361 19q28 0 38.5 -13t10.5 -45v-936l325 246q41 32 36.5 45.5t-40.5 13.5h-55q-41 0 -41 46v112q0 26 8.5 34.5t34.5 8.5 h537q26 0 34.5 -8.5t8.5 -34.5v-110q0 -48 -43 -48h-41q-54 0 -82.5 -12t-92.5 -61l-272 -213l318 -260q31 -25 68.5 -56.5t51.5 -43t32 -20.5t36 -9h39q24 0 30.5 -7.5t6.5 -29.5v-119q0 -26 -9 -34.5t-36 -8.5h-553q-27 0 -36 8.5t-9 34.5v107q0 49 45 49h26q42 0 42 11 q0 12 -46 46l-323 250v-205q0 -65 15 -83.5t58 -18.5h33q27 0 35 -7.5t8 -27.5v-121q0 -26 -8.5 -34.5t-34.5 -8.5h-530q-27 0 -36 8.5t-9 34.5z" />
<glyph unicode="l" horiz-adv-x="731" d="M31 43v121q0 20 8.5 27.5t36.5 7.5h39q62 0 84 18.5t22 83.5v971q-3 38 -18.5 53.5t-50.5 17.5l-62 3q-26 1 -34.5 13.5t-8.5 35.5v104q0 27 8 35t35 10l367 19q30 0 41.5 -13t11.5 -45v-1204q0 -65 21.5 -83.5t84.5 -18.5h37q28 0 37.5 -7.5t9.5 -27.5v-121 q0 -26 -10 -34.5t-37 -8.5h-577q-27 0 -36 8.5t-9 34.5z" />
<glyph unicode="m" horiz-adv-x="2158" d="M63 43v121q0 20 9 27.5t37 7.5h28q61 0 84 20t23 82v490q0 50 -24.5 66.5t-110.5 16.5q-41 0 -41 46v112q0 23 9.5 32.5t35.5 10.5l364 19q30 0 41.5 -13t11.5 -45v-88q96 166 371 166q258 0 324 -196q45 100 148.5 148t246.5 48q348 0 348 -358v-467q0 -94 68 -94 q24 0 44 4t29 4q25 3 25 -21v-123q0 -39 -31 -49q-58 -22 -176 -22q-37 0 -70 6t-66 22t-56.5 42t-38.5 68t-15 97v496q0 78 -39.5 122t-123.5 44q-133 0 -201 -108.5t-68 -309.5v-166q0 -65 21.5 -83.5t81.5 -18.5h32q28 0 37 -7.5t9 -27.5v-121q0 -26 -9.5 -34.5 t-36.5 -8.5h-524q-28 0 -36.5 8.5t-8.5 34.5v121q0 20 8.5 27.5t36.5 7.5h29q40 0 55.5 16t16.5 68v436q0 166 -162 166q-133 0 -201 -108.5t-68 -309.5v-166q0 -64 14.5 -83t55.5 -19h33q25 0 34 -8t9 -27v-121q0 -26 -9 -34.5t-34 -8.5h-524q-27 0 -36.5 8.5t-9.5 34.5z " />
<glyph unicode="n" horiz-adv-x="1482" d="M57 43v121q0 20 8.5 27.5t36.5 7.5h39q58 0 81 15.5t26 66.5v510q0 50 -23.5 66.5t-109.5 16.5q-41 0 -41 46v112q0 23 9.5 32.5t35.5 10.5l348 19q30 0 40.5 -13t10.5 -45v-125q44 102 153 152.5t255 50.5q366 0 366 -358v-467q0 -94 66 -94q24 0 45 4t31 4q24 3 24 -21 v-123q0 -39 -33 -49q-58 -22 -176 -22q-37 0 -69.5 6t-65.5 22t-56 42t-37.5 68t-14.5 97v496q0 76 -44.5 121t-138.5 45q-142 0 -214 -112.5t-72 -321.5v-150q0 -65 21 -83.5t85 -18.5h37q28 0 37.5 -7.5t9.5 -27.5v-121q0 -26 -10 -34.5t-37 -8.5h-578q-28 0 -36.5 8.5 t-8.5 34.5z" />
<glyph unicode="o" horiz-adv-x="1327" d="M70 545q0 94 20.5 177t66.5 155.5t114 124.5t168.5 82t224.5 30q154 0 270.5 -45t185.5 -125t103 -180t34 -219q0 -118 -34 -218.5t-102.5 -181t-185.5 -126.5t-271 -46q-124 0 -225 30.5t-168.5 83t-113.5 125.5t-66.5 156t-20.5 177zM375 543q0 -180 71 -277.5 t218 -97.5t217.5 97.5t70.5 277.5q0 377 -288 377q-289 0 -289 -377z" />
<glyph unicode="p" horiz-adv-x="1409" d="M16 -346q0 20 8.5 27.5t36.5 7.5h39q63 0 85 18.5t22 83.5v1000q0 50 -23.5 66.5t-107.5 16.5q-43 0 -43 46v112q0 23 10.5 32t36.5 11l362 19q30 0 42 -13.5t12 -44.5v-106q126 178 378 178q109 0 190.5 -28t142.5 -90t92.5 -168.5t31.5 -256.5q0 -277 -143.5 -434.5 t-392.5 -157.5q-166 0 -299 47v-229q0 -65 21.5 -83.5t84.5 -18.5h37q29 0 38 -7.5t9 -27.5v-121q0 -26 -9.5 -34.5t-37.5 -8.5h-578q-27 0 -36 8.5t-9 34.5v121zM498 238q37 -20 106 -35t135 -15q80 0 139 31t91.5 85t47.5 118t15 141t-10.5 133.5t-35.5 102t-72.5 69 t-116.5 23.5q-268 0 -299 -342v-311z" />
<glyph unicode="q" horiz-adv-x="1390" d="M78 489q0 303 141.5 461t394.5 158q171 0 293 -82v12q0 32 10.5 45t38.5 13l349 -23q29 -2 38 -9.5t9 -33.5v-108q0 -42 -45 -45l-41 -3q-39 -5 -55 -19.5t-17 -53.5v-1010q0 -65 19 -83.5t77 -18.5h33q27 0 36 -8t9 -29v-119q0 -26 -8.5 -34.5t-36.5 -8.5h-600 q-27 0 -37 8.5t-10 34.5v119q0 21 10 29t37 8h31q87 0 120 20t33 82v324q-134 -142 -370 -142q-459 0 -459 516zM377 508q0 -151 57.5 -235.5t179.5 -84.5q257 0 293 344v295q-36 27 -100.5 45.5t-134.5 18.5q-150 0 -222.5 -102.5t-72.5 -280.5z" />
<glyph unicode="r" horiz-adv-x="1155" d="M57 43v121q0 20 8.5 27.5t36.5 7.5h35q63 0 87 20t24 82v490q0 50 -23.5 66.5t-109.5 16.5q-41 0 -41 46v112q0 23 9.5 32.5t35.5 10.5l364 19q30 0 42 -13.5t12 -44.5v-205q11 34 27 67t48 73.5t71 71t98.5 51t129.5 20.5q236 0 236 -215q0 -72 -50.5 -118t-121.5 -46 q-65 0 -109.5 42.5t-44.5 111.5v24q-85 -19 -151.5 -101.5t-99.5 -191t-33 -219.5v-100q0 -65 21 -83.5t85 -18.5h82q28 0 37.5 -7.5t9.5 -27.5v-123q0 -24 -10 -32.5t-37 -8.5h-623q-27 0 -36 8.5t-9 34.5z" />
<glyph unicode="s" horiz-adv-x="1136" d="M80 244q0 70 42 114.5t118 44.5q73 0 112 -40.5t39 -108.5q0 -42 -18 -76q82 -26 192 -26q112 0 170 31t58 104q0 41 -29 69.5t-76.5 43.5t-108 30.5t-123.5 28.5t-123.5 38.5t-108 59.5t-76.5 93.5t-29 137.5q0 158 115.5 242t338.5 84q225 0 342 -64t117 -184 q0 -63 -41 -108t-110 -45q-72 0 -115 39.5t-43 109.5q0 34 8 58q-60 14 -145 14q-197 0 -197 -113q0 -38 29 -64.5t76.5 -41t108 -30t123.5 -29t123.5 -40t108 -61.5t76.5 -95.5t29 -140.5q0 -174 -120.5 -260t-371.5 -86q-229 0 -360 68t-131 203z" />
<glyph unicode="t" horiz-adv-x="860" d="M23 915v103q0 31 9.5 44t35.5 13h129l127 287q10 20 31 26.5t61 6.5q48 0 57.5 -5t9.5 -28v-287h260q34 0 46 -7t12 -32v-125q0 -24 -13 -34.5t-43 -10.5h-262v-467q0 -65 9.5 -105t32.5 -61.5t53 -28.5t79 -7q75 0 140 18q19 7 26.5 0.5t7.5 -33.5v-112q0 -23 -8 -35 t-30 -21q-67 -26 -218 -26q-65 0 -117.5 8.5t-102.5 31.5t-83.5 60.5t-54 99t-20.5 142.5v536h-113q-38 0 -49.5 8t-11.5 41z" />
<glyph unicode="u" horiz-adv-x="1462" d="M20 920v112q0 23 10 32t36 11l364 19q30 0 40.5 -13t10.5 -45v-676q0 -75 47 -119t146 -44q146 0 220.5 96.5t74.5 277.5v232q-2 41 -28 56t-105 15q-24 0 -32.5 11.5t-8.5 34.5v112q0 23 9.5 32.5t35.5 10.5l362 19q31 0 42 -13t11 -45v-762q3 -79 68 -79q23 0 44 4 t30 4q26 3 26 -21v-123q0 -39 -34 -49q-55 -22 -175 -22q-175 0 -227 127q-117 -146 -414 -146q-89 0 -155.5 18t-118 58.5t-78 112.5t-26.5 174v459q0 50 -24 66.5t-110 16.5q-24 0 -32.5 11.5t-8.5 34.5z" />
<glyph unicode="v" horiz-adv-x="1409" d="M12 924v108q0 26 9 34.5t34 8.5h543q28 0 36.5 -8.5t8.5 -34.5v-108q0 -21 -9.5 -31.5t-35.5 -11.5l-14 -2q-37 -2 -56 -11q-18 -9 -24 -32q-1 -5 -2 -12q0 -20 14 -50l211 -522l217 539q10 24 10 40q0 15 -10 25q-20 18 -74 21l-16 2q-43 2 -43 43v110q0 26 9.5 34.5 t35.5 8.5h498q26 0 34.5 -8.5t8.5 -34.5v-108q0 -23 -8.5 -36t-34.5 -14h-35q-26 -2 -38 -4.5t-29.5 -11.5t-31 -28.5t-28.5 -53.5l-328 -762q-8 -20 -16.5 -25t-36.5 -5h-225q-22 0 -31.5 5.5t-15.5 22.5l-332 754q-34 72 -54 87t-79 21l-19 3q-26 4 -34.5 15t-8.5 32z" />
<glyph unicode="w" horiz-adv-x="2056" d="M14 924v110q0 25 9 33t36 7h547q26 0 34.5 -7.5t8.5 -32.5v-112q0 -38 -28 -41q-69 -3 -93 -11t-24 -32q0 -20 12 -58l164 -549l223 793q8 32 17 41.5t36 8.5h211q14 0 22.5 -1.5t15 -11t8.5 -15t8 -24.5l233 -784l143 544q13 47 13 60q0 16 -11.5 21.5t-48.5 10.5l-43 5 q-28 4 -35.5 12.5t-7.5 30.5v112q0 24 9 32.5t34 7.5h500q24 0 32.5 -7.5t8.5 -30.5v-94q0 -63 -43 -68l-49 -2q-6 -1 -18.5 -1.5t-17 -1.5t-13.5 -2.5t-13 -4.5t-11 -8t-11 -12l-10 -17.5t-11.5 -24.5t-11.5 -32l-250 -739q-6 -22 -15 -26.5t-44 -4.5h-250q-23 0 -34 5.5 t-15 23.5l-217 665l-213 -663q-6 -21 -14.5 -26t-38.5 -5h-232q-23 0 -32 5.5t-15 23.5l-264 743q-13 38 -22 57t-25 29.5t-29 12.5t-47 5q-42 4 -55 14.5t-13 35.5z" />
<glyph unicode="x" horiz-adv-x="1318" d="M27 37v117q0 20 6.5 30t25.5 11l52 2q48 2 88.5 21.5t97.5 76.5l229 231l-260 271q-54 54 -80 67t-63 15l-35 2q-24 1 -33.5 11t-9.5 30v118q0 35 43 35h508q22 0 29.5 -7.5t7.5 -27.5v-120q0 -13 -1 -19.5t-8.5 -13t-21.5 -6.5h-37q-30 0 -29 -10q0 -10 35 -48l119 -129 l127 129q32 33 32 47q0 7 -7 9t-21 2h-20q-39 0 -39 39v120q0 35 37 35h436q21 0 27 -7t6 -28v-127q0 -17 -8 -26t-31 -10l-33 -3q-55 -3 -89 -21.5t-110 -96.5l-186 -195l231 -252q63 -71 96.5 -90.5t75.5 -19.5l43 -2q22 -1 28.5 -10.5t6.5 -30.5v-119q0 -23 -7.5 -30 t-31.5 -7h-475q-22 0 -29.5 8t-7.5 31v117q0 21 7.5 29t29.5 8q43 0 47.5 9.5t-26.5 43.5l-146 149l-133 -139q-41 -36 -41 -49q0 -3 3 -5q5 -4 26 -5l43 -2q37 -3 37 -37v-121q0 -21 -8.5 -29t-28.5 -8h-485q-23 0 -31 7.5t-8 29.5z" />
<glyph unicode="y" horiz-adv-x="1388" d="M14 922v110q0 26 8.5 34.5t34.5 8.5h545q26 0 34.5 -8.5t8.5 -34.5v-110q0 -45 -43 -45h-22q-46 0 -63 -6t-17 -27q0 -24 20 -74l205 -510l209 526q13 34 13 53q0 13 -5 19q-14 16 -76 16h-16q-27 0 -36 12t-9 34v112q0 26 9 34.5t36 8.5h487q28 0 36.5 -8.5t8.5 -34.5 v-106q0 -49 -43 -49h-36q-44 0 -70 -19t-53 -86l-406 -991q-66 -161 -165 -226t-261 -65q-128 0 -214.5 69t-86.5 185q0 72 43 119t119 47q64 0 110 -43t46 -113q0 -82 -66 -131h16q148 0 226 172l45 115l-379 848q-38 79 -57.5 97.5t-73.5 18.5h-19q-43 0 -43 48z" />
<glyph unicode="z" horiz-adv-x="1232" d="M72 41v115q0 29 10 39l668 698h-263q-82 0 -112.5 -26.5t-65.5 -131.5q-6 -23 -15.5 -31t-31.5 -8h-137q-39 0 -33 39l39 320q3 32 51 32h912q24 0 31.5 -10t7.5 -30v-74q0 -49 -29 -82l-668 -696h316q32 0 49 1t36 9t29 18t24 35.5t25 54t29 80.5q8 20 17.5 27.5 t31.5 7.5h135q20 0 28 -8q6 -7 5 -21v-8l-45 -358q-3 -18 -14 -25.5t-35 -7.5h-967q-17 1 -22.5 10.5t-5.5 30.5z" />
<glyph unicode="{" horiz-adv-x="776" d="M49 559v74h303v-2q48 -10 81 -33t49.5 -56.5t23 -69t6.5 -81.5v-342q0 -135 166 -135q39 0 39 -23v-104q0 -15 -8 -20t-33 -5h-37q-120 0 -195 12t-126.5 45t-72 89t-20.5 145v283q0 81 -30.5 128.5t-116.5 67.5l-8 2q-7 2 -8.5 3t-6 3.5t-5.5 7t-1 11.5zM49 633v74 q0 7 1.5 11t5 7t6 4t8.5 2t8 2q86 20 116.5 67.5t30.5 129.5v282q0 89 20.5 145t72 89t126.5 45t195 12h37q25 0 33 -4.5t8 -19.5v-105q0 -22 -39 -22q-166 0 -166 -135v-343q0 -97 -34 -158t-126 -81v-2h-303z" />
<glyph unicode="|" horiz-adv-x="636" d="M176 -258v1724q0 51 57 54h177q53 0 53 -52v-1724q0 -50 -55 -53h-179q-53 0 -53 51z" />
<glyph unicode="}" horiz-adv-x="778" d="M59 -109v-104q0 -15 8 -20t33 -5h39q120 0 194.5 12t125.5 45t71.5 88.5t20.5 145.5v283q0 81 30.5 128.5t116.5 67.5l8 2q7 2 8.5 3t6 3.5t5.5 7t1 11.5v74h-303v-2q-48 -10 -81 -33t-49.5 -56.5t-23 -69t-6.5 -81.5v-342q0 -135 -166 -135q-39 0 -39 -23zM59 1374v105 q0 15 8 19.5t33 4.5h39q120 0 194.5 -12t125.5 -45t71.5 -88.5t20.5 -145.5v-282q0 -82 30.5 -129.5t116.5 -67.5q2 -1 8 -2t8.5 -2t6 -4t5 -7t1.5 -11v-74h-303v2q-92 20 -126 81t-34 158v343q0 135 -166 135q-39 0 -39 22z" />
<glyph unicode="~" horiz-adv-x="1165" d="M35 522q0 151 91.5 236.5t266.5 85.5q74 0 132 -18t80 -34t46 -40q28 -29 56 -42.5t84 -13.5q121 0 139 86q3 19 11.5 26t31.5 7h149q23 0 32 -12t9 -49q0 -146 -99.5 -234t-281.5 -88q-71 0 -121.5 15t-70.5 30t-43 41q-21 23 -32.5 33.5t-40 20.5t-68.5 10 q-117 0 -138 -88q-6 -22 -13.5 -27.5t-33.5 -5.5h-141q-27 0 -36 11.5t-9 49.5z" />
<glyph unicode="&#xa1;" horiz-adv-x="653" d="M131 182q0 62 21.5 155t48 181.5t48 231.5t21.5 292q0 20 10.5 28.5t45.5 8.5t44 -8.5t9 -28.5q0 -149 21.5 -292t48 -231.5t48 -181.5t21.5 -155q0 -106 -45 -154t-147 -48q-103 0 -149 48t-46 154zM145 1337q0 81 57 136t134 55q74 0 126 -48t52 -128q0 -82 -58 -134.5 t-137 -52.5q-74 0 -124 48t-50 124z" />
<glyph unicode="&#xa2;" horiz-adv-x="1257" d="M88 547q0 226 124.5 375t360.5 182v117q0 50 58 53h176q55 0 55 -51v-125q140 -27 234 -109q26 -27 32 -43q31 -50 31 -102q0 -81 -56 -131.5t-134 -50.5q-74 0 -125 47.5t-51 124.5q0 43 14 75q-39 8 -107 11q-82 0 -143 -30t-96.5 -83t-52.5 -119.5t-17 -146.5 q0 -173 83 -263t276 -90q131 0 233 25q16 5 51.5 16.5t61 18.5t37.5 8q16 1 22 -6.5t6 -22.5v-118q0 -30 -8 -42.5t-39 -25.5q-93 -42 -252 -59v-91q0 -50 -57 -53h-178q-54 0 -54 51v93q-255 30 -370 171.5t-115 393.5z" />
<glyph unicode="&#xa3;" horiz-adv-x="1404" d="M96 588v117q0 24 7.5 31t33.5 7h88q-43 71 -66.5 136t-23.5 145q0 231 149.5 353t413.5 122q235 -2 376.5 -82.5t156.5 -232.5v-8q0 -3 1 -8t1 -7v-8q0 -82 -57.5 -131t-137.5 -49q-76 0 -127 48t-51 128q0 44 19 84q-53 50 -181 53q-112 0 -177.5 -55.5t-65.5 -175.5 q0 -34 12 -76t25.5 -72t40 -83.5t38.5 -80.5h316q26 0 33.5 -7t7.5 -31v-117q0 -23 -8 -31t-35 -8h-258q2 -10 2 -31q0 -46 -7 -89.5t-23.5 -88t-48 -83t-75.5 -62.5h375q55 0 87 1t61.5 7.5t44 15t29 27.5t23 41t19.5 61l14 66q6 24 17 32.5t37 8.5h108q27 0 33.5 -9.5 t3.5 -35.5l-35 -314q-7 -65 -26 -80.5t-74 -15.5h-1024q-27 0 -36 8.5t-9 34.5v109q0 25 7.5 34t29.5 9h2q184 13 184 260q0 44 -16 94h-191q-27 0 -35 8t-8 31z" />
<glyph unicode="&#xa4;" horiz-adv-x="1476" d="M117 410q-40 34 0 69l123 115q-41 89 -41 211q0 148 63 256l-117 108q-40 36 0 76l125 125q33 35 74 -2l135 -125q112 47 269 47q118 0 227 -33l139 132q38 35 78 -3l127 -122q36 -36 0 -72l-111 -102q82 -116 82 -283q0 -137 -57 -248l106 -98q40 -37 -2 -76l-125 -125 q-35 -33 -75 2l-113 105q-117 -54 -276 -54q-189 0 -318 72l-108 -100q-38 -35 -82 0zM418 823q0 -151 88 -239t242 -88q153 0 239 87.5t86 239.5q0 127 -88.5 206t-236.5 79q-150 0 -240 -79t-90 -206z" />
<glyph unicode="&#xa5;" horiz-adv-x="1685" d="M63 1327v109q0 26 11 34.5t41 8.5h563q32 0 42.5 -8.5t10.5 -36.5v-99q0 -49 -53 -49h-25q-14 0 -24 -2t-20 -7.5t-8.5 -20t15.5 -35.5l263 -410l292 410q17 31 5.5 45t-33.5 14h-37q-51 0 -51 55v101q0 26 10.5 34.5t40.5 8.5h467q30 0 40.5 -8.5t10.5 -34.5v-109 q0 -23 -10.5 -35t-40.5 -12h-47q-23 0 -42 -14.5t-54 -61.5l-437 -579v-320q0 -67 22.5 -86.5t84.5 -19.5h37q28 0 36.5 -7.5t8.5 -27.5v-121q0 -26 -9 -34.5t-36 -8.5h-588q-27 0 -36 8.5t-9 34.5v121q0 20 8.5 27.5t36.5 7.5h35q56 0 79.5 18t26.5 70v311l-393 565 q-46 67 -79.5 92t-65.5 25h-37q-30 0 -41 12t-11 35z" />
<glyph unicode="&#xa6;" horiz-adv-x="641" d="M176 -274v634q0 51 57 54h177q53 0 53 -52v-634q0 -51 -55 -54h-179q-53 0 -53 52zM176 811v655q0 51 57 54h177q53 0 53 -52v-655q0 -50 -55 -53h-179q-53 0 -53 51z" />
<glyph unicode="&#xa7;" horiz-adv-x="1159" d="M88 225v13q0 72 50 120t116 48q65 0 112.5 -44t47.5 -114q0 -48 -27 -90q77 -21 154 -21q200 0 200 121q0 38 -34.5 67t-89.5 49.5t-121.5 40.5t-133 45.5t-121.5 58t-89.5 85.5t-34.5 121q0 192 188 266q-145 81 -145 217q0 150 116 225.5t320 75.5q110 0 191.5 -13.5 t127.5 -34.5t74 -51.5t36.5 -59t8.5 -62.5h-2q-1 -70 -51.5 -115t-118.5 -45q-66 0 -110.5 42.5t-44.5 111.5q0 24 6 45q-69 16 -127 16q-162 0 -162 -92q0 -35 35.5 -62.5t92 -48t125 -40.5t137.5 -46.5t125.5 -60t92 -87t35.5 -120.5q0 -186 -170 -276q131 -81 131 -207 q0 -114 -69.5 -190.5t-180 -109t-256.5 -32.5q-123 0 -219 27t-155.5 85.5t-59.5 141.5zM385 768q0 -18 8 -34t28 -30.5t36.5 -24.5t52.5 -23t56 -19.5t65 -20.5q65 3 108 33t43 92q0 60 -96 105q-70 18 -141 18q-160 0 -160 -96z" />
<glyph unicode="&#xa8;" horiz-adv-x="1157" d="M43 1395q0 69 50 117.5t116 48.5q65 0 109 -43t44 -113t-49 -115t-116 -45q-65 0 -109.5 41.5t-44.5 108.5zM473 1395q0 69 49.5 117.5t116.5 48.5q64 0 109 -43t45 -113t-49.5 -115t-118.5 -45q-65 0 -108.5 41.5t-43.5 108.5z" />
<glyph unicode="&#xa9;" horiz-adv-x="1894" d="M86 748q0 164 56 302t162 241t271.5 160.5t374.5 57.5t374 -57.5t270 -160t159.5 -240t54.5 -301.5q0 -166 -54.5 -306.5t-159 -246t-270.5 -165t-376 -59.5q-169 0 -310 39t-242 109t-171.5 167t-104.5 213t-34 247zM293 758q0 -285 176.5 -462t478.5 -177t479 177 t177 462q0 280 -177.5 443t-476.5 163q-298 0 -477.5 -163.5t-179.5 -442.5zM526 739q0 180 125 296t340 116q167 0 271 -80q61 -33 61 -106q0 -60 -40 -97t-99 -37q-54 0 -91.5 34t-37.5 91q0 31 8 50q-30 6 -72 6q-117 0 -174 -73.5t-57 -188.5q0 -111 64.5 -176.5 t205.5 -65.5q49 0 91 8t62.5 16t59.5 25q45 18 55 18q25 0 25 -20v-82q0 -29 -35 -45q-124 -59 -299 -59q-218 0 -340.5 103.5t-122.5 266.5z" />
<glyph unicode="&#xaa;" horiz-adv-x="970" d="M82 1042q0 121 131.5 180.5t361.5 59.5v31q0 45 -36 70.5t-97 25.5q-48 0 -92 -6v-10q0 -50 -35 -81.5t-86 -31.5q-47 0 -77.5 29t-30.5 77q0 13 2 19q9 74 84.5 104.5t232.5 30.5q80 0 137 -11.5t102 -40t67 -80t22 -128.5v-252q0 -72 59 -72q6 0 12 2t16.5 6t18.5 7 q13 5 19 -0.5t6 -24.5v-72q0 -15 -6.5 -22.5t-24.5 -15.5q-43 -19 -100 -19q-119 0 -166 82q-82 -82 -244 -82q-133 0 -204.5 58.5t-71.5 166.5zM276 1034q0 -37 29 -56.5t80 -19.5q90 0 140 46.5t50 128.5v26q-299 0 -299 -125z" />
<glyph unicode="&#xab;" horiz-adv-x="1779" d="M61 567q0 67 13.5 95.5t58.5 56.5l569 334q46 26 91 26h174q27 0 42 -14t15 -37q0 -29 -45 -61l-676 -400l676 -399q45 -32 45 -62q0 -23 -15 -37t-42 -14h-174q-44 0 -91 27l-569 334q-45 28 -58.5 56t-13.5 95zM737 567q0 67 13.5 95.5t58.5 56.5l569 334q46 26 90 26 h174q27 0 42.5 -14.5t15.5 -36.5q0 -29 -45 -61l-676 -400l676 -399q45 -32 45 -62q0 -22 -15.5 -36.5t-42.5 -14.5h-174q-43 0 -90 27l-569 334q-45 28 -58.5 56t-13.5 95z" />
<glyph unicode="&#xac;" horiz-adv-x="1359" d="M96 694v131q0 33 22.5 53.5t55.5 20.5h983q33 0 55.5 -21.5t22.5 -52.5v-503q0 -31 -21.5 -51.5t-52.5 -20.5h-147q-31 0 -53.5 21t-22.5 51v296h-764q-33 0 -55.5 21.5t-22.5 54.5z" />
<glyph unicode="&#xad;" horiz-adv-x="950" d="M119 590v112q0 26 8.5 34.5t36.5 8.5h627q28 0 35.5 -9.5t7.5 -33.5v-112q0 -26 -9.5 -34.5t-36.5 -8.5h-624q-27 0 -36 8.5t-9 34.5z" />
<glyph unicode="&#xae;" horiz-adv-x="1894" d="M86 748q0 164 56 302t162 241t271.5 160.5t374.5 57.5t374 -57.5t270 -160t159.5 -240t54.5 -301.5q0 -166 -54.5 -306.5t-159 -246t-270.5 -165t-376 -59.5q-169 0 -310 39t-242 109t-171.5 167t-104.5 213t-34 247zM293 758q0 -285 176.5 -462t478.5 -177t479 177 t177 462q0 280 -177.5 443t-476.5 163q-298 0 -477.5 -163.5t-179.5 -442.5zM561 379v67q0 11 5.5 16t23.5 5h4q35 0 50 13t15 50v453q0 38 -14.5 51t-58.5 13q-16 0 -20.5 5.5t-4.5 18.5v64q0 17 5.5 21.5t23.5 4.5h334q216 0 310.5 -51t94.5 -186q0 -175 -192 -228 q73 -42 137 -192q15 -29 55 -29q16 0 41 10q9 4 14 0t5 -20v-72q0 -23 -23 -35q-45 -18 -92 -18q-25 0 -43.5 2.5t-42.5 10.5t-43.5 27.5t-32.5 49.5q-3 7 -15 34.5t-18 40.5t-20 39t-24.5 40.5t-27 34.5t-32.5 31t-37 20t-43 10h-55v-150q0 -40 13.5 -51.5t51.5 -11.5h4 q19 0 24 -4.5t5 -16.5v-67q0 -17 -5.5 -22t-23.5 -5h-319q-18 0 -23.5 5t-5.5 22zM840 793h96q99 0 144.5 32.5t45.5 98.5t-47.5 95.5t-146.5 29.5h-92v-256z" />
<glyph unicode="&#xaf;" horiz-adv-x="710" d="M29 1450q0 20 5 32.5t16.5 17.5t20.5 6t27 1h553q44 0 58 -36t14 -111q0 -35 -8.5 -51.5t-30.5 -16.5h-588q-39 0 -53 35.5t-14 122.5z" />
<glyph unicode="&#xb0;" horiz-adv-x="851" d="M74 1208q0 140 97.5 231t256.5 91q158 0 254 -90.5t96 -229.5q0 -142 -97.5 -234.5t-254.5 -92.5q-158 0 -255 92t-97 233zM238 1208q0 -93 51 -150t139 -57q86 0 138 57.5t52 149.5q0 91 -51.5 146t-138.5 55q-88 0 -139 -54.5t-51 -146.5z" />
<glyph unicode="&#xb1;" horiz-adv-x="1138" d="M98 -14v116q0 22 7.5 29.5t33.5 7.5h852q26 0 33.5 -7.5t7.5 -29.5v-116q0 -24 -8 -32.5t-35 -8.5h-850q-25 0 -33 8.5t-8 32.5zM98 702q0 29 9 46.5t31 25.5t44 10t64 2h217v244q0 78 117 78q45 0 66.5 -18t21.5 -68v-236h288q28 0 46.5 -10.5t26 -29.5t9.5 -34t2 -36 q0 -43 -19.5 -63.5t-72.5 -20.5h-280v-260q0 -80 -115 -80q-57 0 -73.5 33t-16.5 110v197h-279q-86 0 -86 110z" />
<glyph unicode="&#xb2;" horiz-adv-x="747" d="M41 889v53q0 36 45 78l293 256q90 80 90 172q0 49 -30 74.5t-101 25.5q-47 0 -80 -8q16 -29 16 -61q0 -51 -35.5 -83t-86.5 -32q-45 0 -78 31.5t-33 79.5q0 14 2 20q3 82 85.5 135t227.5 53q160 0 242 -63t82 -160q0 -70 -43 -136.5t-133 -145.5l-215 -193h123 q54 0 76.5 9t44.5 38t38 43l7 21q5 24 30 24h74q17 0 20 -6t0 -20l-20 -181q-3 -36 -13 -44.5t-40 -8.5h-561q-15 0 -21 6t-6 23z" />
<glyph unicode="&#xb3;" horiz-adv-x="724" d="M39 1487v10q5 87 84.5 138t212.5 51q141 0 218 -58t77 -162q0 -83 -46.5 -128.5t-97.5 -47.5q92 -10 147.5 -57.5t55.5 -140.5q0 -123 -95.5 -184.5t-260.5 -61.5q-86 0 -160 10t-104 23q-19 8 -19 28v99q0 20 15 20q4 0 36 -8q5 -1 32 -6.5t47.5 -8.5t53.5 -6.5t64 -3.5 q166 0 166 109q0 58 -41.5 84t-99.5 26h-50q-14 0 -18 4.5t-4 18.5v106q0 12 4 15.5t18 3.5h48q108 0 108 98q0 43 -22.5 66.5t-81.5 23.5q-37 0 -64 -8q12 -21 12 -51q0 -51 -35.5 -82t-86.5 -31q-48 0 -80.5 30.5t-32.5 80.5z" />
<glyph unicode="&#xb4;" horiz-adv-x="620" d="M100 1402q1 13 23 21l364 176q29 16 47.5 13.5t32.5 -27.5l68 -117q16 -26 9 -41t-40 -24l-405 -109q-46 -13 -62 19l-26 55q-12 21 -11 34z" />
<glyph unicode="&#xb5;" horiz-adv-x="1544" d="M68 920v112q0 24 9 33t36 10l364 19q30 0 40.5 -13t10.5 -45v-676q0 -75 46 -119t147 -44q145 0 220 97t75 277v220q0 50 -24.5 66.5t-110.5 16.5q-41 0 -41 46v112q0 23 9.5 32.5t35.5 10.5l364 19q31 0 42.5 -13t11.5 -45v-762q3 -79 65 -79q24 0 45 4t31 4 q24 3 24 -21v-123q0 -39 -32 -49q-58 -22 -176 -22q-176 0 -226 125q-121 -144 -416 -144q-48 0 -92 6v-411v-5.5v-4.5v-4t-0.5 -4l-1.5 -3t-2 -3t-3 -2t-4.5 -1.5t-5.5 -1t-7 -0.5h-236q-16 0 -20 5t-4 20v1231q0 50 -24.5 66.5t-111.5 16.5q-23 0 -30.5 11.5t-7.5 34.5z " />
<glyph unicode="&#xb6;" horiz-adv-x="1347" d="M63 1092q0 169 110.5 277t283.5 110h755q26 0 35.5 -8.5t9.5 -34.5v-107q0 -26 -9 -37.5t-29 -11.5q-92 0 -120 -19.5t-28 -86.5v-1362v-5.5v-5v-4.5t-0.5 -4l-1.5 -3t-2 -2.5t-3 -2t-4.5 -1.5t-5.5 -0.5t-7 -0.5h-175q-14 0 -19 4.5t-5 17.5v1479h-168v-1479 q0 -13 -3.5 -17.5t-17.5 -4.5h-178q-9 0 -14 1t-7.5 4.5t-2.5 6.5v12v926q-169 2 -281.5 99t-112.5 260z" />
<glyph unicode="&#xb7;" horiz-adv-x="571" d="M102 596q0 81 57 135.5t134 54.5q74 0 126 -48t52 -128q0 -82 -58 -134t-137 -52q-74 0 -124 48t-50 124z" />
<glyph unicode="&#xb8;" horiz-adv-x="655" d="M76 -317q0 16 4 19t16 3q98 -10 133 -10q138 0 138 69q0 58 -99 58q-20 0 -56.5 -3t-47.5 -3q-28 0 -19 24l82 178l135 -4l-34 -82q239 7 239 -163q0 -98 -82 -146.5t-235 -48.5q-21 0 -50 1.5t-62 3.5t-46 3q-16 0 -16 29v72z" />
<glyph unicode="&#xb9;" horiz-adv-x="557" d="M43 887v80q0 11 5.5 14.5t23.5 3.5h6q44 0 67 2t34.5 11t13.5 18.5t2 32.5v419q0 17 -5.5 23t-23.5 2l-94 -20q-29 -6 -29 20v92q0 12 6 17t25 10l227 57q42 10 64 10q28 0 28 -32v-598q0 -32 5 -42.5t27.5 -16t80.5 -5.5h8q19 0 24 -3.5t5 -14.5v-80q0 -15 -6 -21 t-23 -6h-442q-29 0 -29 27z" />
<glyph unicode="&#xba;" horiz-adv-x="880" d="M80 1094q0 77 20.5 142t62.5 118t113.5 83.5t165.5 30.5q93 0 163.5 -30.5t112.5 -83t62.5 -118.5t20.5 -142q0 -77 -20.5 -143t-62.5 -119t-112.5 -83t-163.5 -30q-94 0 -165.5 30t-113.5 83t-62.5 119t-20.5 143zM268 1092q0 -113 43.5 -177.5t130.5 -64.5 q84 0 126 64.5t42 177.5q0 116 -42 179.5t-126 63.5q-87 0 -130.5 -63.5t-43.5 -179.5z" />
<glyph unicode="&#xbb;" horiz-adv-x="1779" d="M80 106q0 35 45 62l676 399l-676 400q-45 27 -45 61q0 23 15 37t42 14h172q47 0 92 -26l568 -334q45 -27 58 -55.5t13 -96.5t-13 -95.5t-58 -55.5l-568 -334q-47 -27 -92 -27h-172q-27 0 -42 14t-15 37zM756 106q0 35 45 62l676 399l-676 400q-45 27 -45 61q0 23 15 37 t42 14h172q47 0 92 -26l568 -334q45 -27 58 -55.5t13 -96.5t-13 -95.5t-58 -55.5l-568 -334q-47 -27 -92 -27h-172q-27 0 -42 14t-15 37z" />
<glyph unicode="&#xbc;" horiz-adv-x="1431" d="M61 887v80q0 11 5.5 14.5t23.5 3.5h6q44 0 67 2t34.5 11t13.5 18.5t2 32.5v419q0 17 -5.5 23t-23.5 2l-94 -20q-29 -6 -29 20v92q0 12 6 17t25 10l227 57q42 10 64 10q29 0 29 -32v-598q0 -25 1.5 -34t12.5 -18t32.5 -10.5t65.5 -1.5h8q19 0 24 -3.5t5 -14.5v-80 q0 -15 -6 -21t-23 -6h-442q-29 0 -29 27zM102 109q-2 22 25 61l1014 1321q18 24 32.5 32t38.5 7q40 0 79 -24.5t42 -69.5q3 -33 -28 -72l-1012 -1319q-37 -46 -78 -43q-42 2 -77 29.5t-36 77.5zM688 209v57q0 21 8 29l416 496q13 17 20 21.5t23 4.5h158q47 0 12 -45 l-399 -471h157v107q0 16 21 16h164q8 0 11.5 -2t4 -5t0.5 -9v-107h68q24 0 30.5 -3.5t6.5 -21.5v-71q0 -27 -35 -27h-70q1 -31 15.5 -40t50.5 -9h8q18 0 23 -3.5t5 -14.5v-80q0 -17 -5.5 -22t-22.5 -5h-348q-16 0 -22.5 5.5t-6.5 21.5v80q0 11 6 14.5t23 3.5h10 q32 0 46 10.5t17 38.5h-356q-26 0 -32.5 5t-6.5 26z" />
<glyph unicode="&#xbd;" horiz-adv-x="1650" d="M68 887v80q0 11 5 14.5t23 3.5h6q44 0 67 2t34.5 11t13.5 18.5t2 32.5v419q0 17 -5.5 23t-23.5 2l-94 -20q-28 -6 -28 20v92q0 12 5.5 17.5t24.5 9.5l228 57q42 10 63 10q29 0 29 -32v-598q0 -25 1.5 -34t12.5 -18t32.5 -10.5t65.5 -1.5h9q19 0 23.5 -3.5t4.5 -14.5v-80 q0 -15 -5.5 -21t-22.5 -6h-443q-28 0 -28 27zM104 109q-2 22 25 61l1014 1321q18 24 32.5 32t38.5 7q40 0 79 -24.5t42 -69.5q3 -33 -28 -72l-1012 -1319q-37 -46 -78 -43q-42 2 -77 29.5t-36 77.5zM887 29v53q0 36 45 78l293 256q90 80 90 172q0 49 -30 74.5t-101 25.5 q-47 0 -80 -8q16 -29 16 -62q0 -51 -36 -82.5t-87 -31.5q-45 0 -77.5 31t-32.5 79q0 15 2 21q3 82 85.5 135t227.5 53q160 0 242 -63t82 -160q0 -70 -43.5 -137t-132.5 -146l-215 -192h122q41 0 66.5 7.5t35 17.5t26 30.5t32.5 34.5l6 21q5 24 31 24h74q17 0 20 -7t0 -20 l-20 -180q-3 -36 -13 -44.5t-40 -8.5h-562q-15 0 -20.5 6t-5.5 23z" />
<glyph unicode="&#xbe;" horiz-adv-x="1570" d="M23 1487v10q5 87 84 138t212 51q141 0 218 -58t77 -162q0 -83 -46 -128.5t-97 -47.5q92 -10 147.5 -57.5t55.5 -140.5q0 -123 -96 -184.5t-261 -61.5q-86 0 -160 10t-104 23q-18 8 -18 28v99q0 20 14 20q5 0 37 -8q5 -1 32 -6.5t47.5 -8.5t53.5 -6.5t64 -3.5 q166 0 166 109q0 58 -42 84t-100 26h-49q-14 0 -18 4.5t-4 18.5v106q0 12 4 15.5t18 3.5h47q109 0 109 98q0 43 -23 66.5t-82 23.5q-36 0 -63 -8q12 -21 12 -51q0 -51 -36 -82t-87 -31q-48 0 -80 30.5t-32 80.5zM221 109q-2 22 25 61l1014 1321q18 24 32.5 32t38.5 7 q40 0 79 -24.5t42 -69.5q3 -32 -29 -72l-1011 -1319q-37 -46 -78 -43q-42 2 -77 29.5t-36 77.5zM856 205v57q0 21 8 29l416 495q10 13 13.5 16.5t11 7t18.5 3.5h158q47 0 12 -45l-399 -471h157v106q0 17 21 17h164q8 0 11.5 -2.5t4 -5.5t0.5 -9v-106h68q24 0 30 -3.5 t6 -21.5v-71q0 -27 -34 -27h-70q1 -31 15.5 -40t50.5 -9h8q18 0 23 -4t5 -15v-79q0 -17 -5.5 -22t-22.5 -5h-348q-16 0 -22.5 5.5t-6.5 21.5v79q0 11 6 15t23 4h10q32 0 46 10.5t17 38.5h-356q-26 0 -32.5 5t-6.5 26z" />
<glyph unicode="&#xbf;" horiz-adv-x="1236" d="M66 397q0 72 25.5 135.5t65.5 109.5t89 87t98 75.5t89 67.5t65.5 70.5t25.5 77.5v20q0 26 17 35.5t51 9.5h156q34 0 48.5 -15t14.5 -52q0 -51 -23.5 -98t-61 -85t-82.5 -75t-90 -75.5t-82.5 -79t-61 -92.5t-23.5 -110q0 -86 61.5 -143t184.5 -57q111 0 182 41 q-33 48 -33 108q0 80 57 132.5t134 52.5q75 0 127.5 -50t52.5 -131v-8q0 -49 -18 -97.5t-60 -96t-102.5 -83.5t-152.5 -58.5t-204 -22.5q-257 0 -403.5 115t-146.5 292zM498 1284q0 80 56 132t132 52t129 -49.5t53 -130.5q0 -83 -56 -131.5t-138 -48.5q-74 0 -125 48 t-51 128z" />
<glyph unicode="&#xc0;" horiz-adv-x="1658" d="M-8 43v107q0 23 9 34.5t38 14.5l61 2q34 2 52.5 20t44.5 84l442 1143q8 21 17.5 27t41.5 6h260q23 0 34 -6t20 -25l452 -1131q32 -80 52 -98.5t77 -21.5h37q31 -1 41 -10.5t10 -30.5v-115q0 -26 -10 -34.5t-39 -8.5h-567q-30 0 -38.5 8t-8.5 35v104q0 21 9 30.5t38 12.5 h25q44 5 62.5 16t18.5 36q0 19 -16 65l-61 154h-596l-66 -170q-19 -52 -0.5 -71.5t74.5 -24.5l22 -2q30 -3 40 -13.5t10 -32.5v-104q0 -26 -10 -34.5t-40 -8.5h-491q-26 0 -35.5 8t-9.5 35zM393 1765l72 152q9 21 24 23.5t46 -11.5l385 -172q19 -8 20.5 -21t-10.5 -36 l-23 -53q-14 -32 -63 -21l-432 94q-42 10 -19 45zM571 655h447l-225 576z" />
<glyph unicode="&#xc1;" horiz-adv-x="1658" d="M-8 43v107q0 23 9 34.5t38 14.5l61 2q34 2 52.5 20t44.5 84l442 1143q8 21 17.5 27t41.5 6h260q23 0 34 -6t20 -25l452 -1131q32 -80 52 -98.5t77 -21.5h37q31 -1 41 -10.5t10 -30.5v-115q0 -26 -10 -34.5t-39 -8.5h-567q-30 0 -38.5 8t-8.5 35v104q0 21 9 30.5t38 12.5 h25q44 5 62.5 16t18.5 36q0 19 -16 65l-61 154h-596l-66 -170q-19 -52 -0.5 -71.5t74.5 -24.5l22 -2q30 -3 40 -13.5t10 -32.5v-104q0 -26 -10 -34.5t-40 -8.5h-491q-26 0 -35.5 8t-9.5 35zM571 655h447l-225 576zM677 1738q1 13 23 21l365 176q29 16 47.5 13.5t32.5 -27.5 l67 -117q16 -26 9.5 -41t-39.5 -24l-406 -109q-45 -13 -61 19l-27 55q-12 21 -11 34z" />
<glyph unicode="&#xc2;" horiz-adv-x="1658" d="M-8 43v107q0 23 9 34.5t38 14.5l61 2q34 2 52.5 20t44.5 84l442 1143q8 21 17.5 27t41.5 6h260q23 0 34 -6t20 -25l452 -1131q32 -80 52 -98.5t77 -21.5h37q31 -1 41 -10.5t10 -30.5v-115q0 -26 -10 -34.5t-39 -8.5h-567q-30 0 -38.5 8t-8.5 35v104q0 21 9 30.5t38 12.5 h25q44 5 62.5 16t18.5 36q0 19 -16 65l-61 154h-596l-66 -170q-19 -52 -0.5 -71.5t74.5 -24.5l22 -2q30 -3 40 -13.5t10 -32.5v-104q0 -26 -10 -34.5t-40 -8.5h-491q-26 0 -35.5 8t-9.5 35zM494 1669l231 193q22 19 38 23.5t58 4.5q43 0 59 -4t38 -24l231 -193 q26 -25 17.5 -38t-44.5 -13h-100q-31 0 -45 4t-35 20l-119 91l-123 -91q-22 -16 -37.5 -20t-52.5 -4h-92q-81 0 -24 51zM571 655h447l-225 576z" />
<glyph unicode="&#xc3;" horiz-adv-x="1658" d="M-8 43v107q0 23 9 34.5t38 14.5l61 2q34 2 52.5 20t44.5 84l442 1143q8 21 17.5 27t41.5 6h260q23 0 34 -6t20 -25l452 -1131q32 -80 52 -98.5t77 -21.5h37q31 -1 41 -10.5t10 -30.5v-115q0 -26 -10 -34.5t-39 -8.5h-567q-30 0 -38.5 8t-8.5 35v104q0 21 9 30.5t38 12.5 h25q44 5 62.5 16t18.5 36q0 19 -16 65l-61 154h-596l-66 -170q-19 -52 -0.5 -71.5t74.5 -24.5l22 -2q30 -3 40 -13.5t10 -32.5v-104q0 -26 -10 -34.5t-40 -8.5h-491q-26 0 -35.5 8t-9.5 35zM506 1659q0 99 55 154t154 55q93 0 141 -43q35 -27 70 -27q66 0 73 41q3 13 9 18 t24 5h98q29 0 29 -29q0 -100 -55 -155.5t-156 -55.5q-100 0 -141 41q-10 10 -16.5 15t-22 9.5t-37.5 4.5q-55 0 -65 -41q-5 -14 -11.5 -18.5t-25.5 -4.5h-94q-29 0 -29 31zM571 655h447l-225 576z" />
<glyph unicode="&#xc4;" horiz-adv-x="1658" d="M-8 43v107q0 23 9 34.5t38 14.5l61 2q34 2 52.5 20t44.5 84l442 1143q8 21 17.5 27t41.5 6h260q23 0 34 -6t20 -25l452 -1131q32 -80 52 -98.5t77 -21.5h37q31 -1 41 -10.5t10 -30.5v-115q0 -26 -10 -34.5t-39 -8.5h-567q-30 0 -38.5 8t-8.5 35v104q0 21 9 30.5t38 12.5 h25q44 5 62.5 16t18.5 36q0 19 -16 65l-61 154h-596l-66 -170q-19 -52 -0.5 -71.5t74.5 -24.5l22 -2q30 -3 40 -13.5t10 -32.5v-104q0 -26 -10 -34.5t-40 -8.5h-491q-26 0 -35.5 8t-9.5 35zM451 1769q0 69 49.5 117.5t115.5 48.5q65 0 109.5 -42.5t44.5 -112.5t-49.5 -115 t-116.5 -45q-65 0 -109 41t-44 108zM571 655h447l-225 576zM881 1769q0 69 49.5 117.5t116.5 48.5q64 0 108.5 -42.5t44.5 -112.5t-49.5 -115t-118.5 -45q-65 0 -108 41t-43 108z" />
<glyph unicode="&#xc5;" horiz-adv-x="1658" d="M-8 43v107q0 23 9 34.5t38 14.5l61 2q34 2 52.5 20t44.5 84l442 1143q8 21 17.5 27t41.5 6h260q23 0 34 -6t20 -25l452 -1131q32 -80 52 -98.5t77 -21.5h37q31 -1 41 -10.5t10 -30.5v-115q0 -26 -10 -34.5t-39 -8.5h-567q-30 0 -38.5 8t-8.5 35v104q0 21 9 30.5t38 12.5 h25q44 5 62.5 16t18.5 36q0 19 -16 65l-61 154h-596l-66 -170q-19 -52 -0.5 -71.5t74.5 -24.5l22 -2q30 -3 40 -13.5t10 -32.5v-104q0 -26 -10 -34.5t-40 -8.5h-491q-26 0 -35.5 8t-9.5 35zM532 1769q0 77 78.5 125t210.5 48q131 0 210 -48t79 -125q0 -76 -79 -124t-210 -48 t-210 48t-79 124zM571 655h447l-225 576zM733 1769q0 -29 25 -45t63 -16t62 15.5t24 45.5t-23.5 48t-62.5 18q-38 0 -63 -18t-25 -48z" />
<glyph unicode="&#xc6;" horiz-adv-x="2158" d="M-20 43v109q0 22 9 34.5t36 12.5l63 2q34 2 53 20t49 90l469 1123q13 31 27 38t59 7h1176q64 0 81 -15t21 -82l17 -264q2 -31 -3 -40t-34 -9h-131q-27 0 -37.5 9t-13.5 36l-13 74q-10 67 -58 81.5t-216 14.5h-248v-459h193q67 0 77 58l9 59q6 27 14 34t35 7h88 q24 0 30.5 -9.5t6.5 -35.5v-420q0 -25 -7 -35t-30 -10h-88q-25 0 -34.5 8.5t-14.5 32.5l-9 61q-6 33 -25 44.5t-52 11.5h-193v-436h324q56 0 87 1t61.5 7t45 14.5t29.5 27.5t23 42t18 61l12 66q6 23 18 32t38 9h106q26 0 33.5 -9.5t5.5 -35.5l-35 -314q-7 -65 -26.5 -80.5 t-75.5 -15.5h-1108q-26 0 -35.5 8.5t-9.5 34.5v107q0 49 39 49q87 0 116.5 17.5t32.5 74.5v174h-493l-72 -170q-12 -29 -13.5 -47t9 -28t26.5 -14t45 -7l27 -2q27 -3 37 -14.5t10 -32.5v-107q0 -26 -10 -34.5t-37 -8.5h-489q-27 0 -36 8.5t-9 34.5zM573 659h412v619h-113 q-16 0 -32 -10.5t-23 -28.5z" />
<glyph unicode="&#xc7;" horiz-adv-x="1554" d="M68 739q0 164 55 302.5t159 240t263 158.5t358 57q120 0 219.5 -22t165 -58t110.5 -83.5t65 -96.5t20 -98v-13q0 -82 -57 -131t-138 -49q-75 0 -126.5 48.5t-51.5 127.5q0 75 49 127q-107 35 -233 35q-112 0 -203.5 -29t-153 -80t-103 -121.5t-60.5 -151t-19 -171.5 q0 -116 32 -209.5t98 -164.5t175 -109.5t254 -38.5q91 0 168 9.5t138.5 29t92.5 32t76 33.5q20 10 32 15t25 6t19 -8t6 -29v-152q0 -30 -35 -49q-67 -40 -194 -74.5t-311 -41.5l-17 -43q240 7 240 -164q0 -98 -82.5 -146.5t-235.5 -48.5q-21 0 -50 1.5t-61.5 3.5t-45.5 3 q-17 0 -17 29v72q0 16 4 19t17 3q97 -10 133 -10q137 0 137 70q0 57 -98 57q-20 0 -57 -3t-48 -3q-27 0 -18 24l61 136q-169 9 -306 59.5t-238.5 142t-157 233.5t-55.5 324z" />
<glyph unicode="&#xc8;" horiz-adv-x="1443" d="M88 43v107q0 49 39 49q91 0 120 20t29 86v873q0 52 -16.5 73.5t-58.5 26.5q-20 2 -72 2q-24 0 -32.5 9.5t-8.5 31.5v115q0 26 9.5 34.5t37.5 8.5h1071q64 0 82 -15t21 -82l16 -264q2 -29 -6 -39t-37 -10h-125q-26 0 -36.5 8.5t-14.5 36.5l-10 74q-9 67 -58 81.5 t-219 14.5h-239v-459h159q70 0 80 58l8 57q4 29 12 36t35 7h113q25 0 31 -9t6 -36v-418q0 -27 -6 -36t-29 -9h-115q-25 0 -33.5 8t-13.5 33l-10 59q-6 33 -25.5 44.5t-52.5 11.5h-159v-436h323q58 0 90 3t58.5 9.5t41 24t25 40.5t23.5 66l14 76q6 23 18 32t37 9h123 q28 0 35 -9.5t4 -35.5l-35 -326q-7 -56 -24.5 -70t-65.5 -14h-1114q-24 0 -34.5 9t-10.5 34zM309 1765l72 152q9 21 24 23.5t46 -11.5l385 -172q19 -8 20.5 -21t-10.5 -36l-23 -53q-14 -32 -63 -21l-432 94q-42 10 -19 45z" />
<glyph unicode="&#xc9;" horiz-adv-x="1443" d="M88 43v107q0 49 39 49q91 0 120 20t29 86v873q0 52 -16.5 73.5t-58.5 26.5q-20 2 -72 2q-24 0 -32.5 9.5t-8.5 31.5v115q0 26 9.5 34.5t37.5 8.5h1071q64 0 82 -15t21 -82l16 -264q2 -29 -6 -39t-37 -10h-125q-26 0 -36.5 8.5t-14.5 36.5l-10 74q-9 67 -58 81.5 t-219 14.5h-239v-459h159q70 0 80 58l8 57q4 29 12 36t35 7h113q25 0 31 -9t6 -36v-418q0 -27 -6 -36t-29 -9h-115q-25 0 -33.5 8t-13.5 33l-10 59q-6 33 -25.5 44.5t-52.5 11.5h-159v-436h323q58 0 90 3t58.5 9.5t41 24t25 40.5t23.5 66l14 76q6 23 18 32t37 9h123 q28 0 35 -9.5t4 -35.5l-35 -326q-7 -56 -24.5 -70t-65.5 -14h-1114q-24 0 -34.5 9t-10.5 34zM595 1738q1 13 23 21l365 176q29 16 47.5 13.5t32.5 -27.5l67 -117q16 -26 9.5 -41t-39.5 -24l-406 -109q-45 -13 -61 19l-27 55q-12 21 -11 34z" />
<glyph unicode="&#xca;" horiz-adv-x="1443" d="M88 43v107q0 49 39 49q91 0 120 20t29 86v873q0 52 -16.5 73.5t-58.5 26.5q-20 2 -72 2q-24 0 -32.5 9.5t-8.5 31.5v115q0 26 9.5 34.5t37.5 8.5h1071q64 0 82 -15t21 -82l16 -264q2 -29 -6 -39t-37 -10h-125q-26 0 -36.5 8.5t-14.5 36.5l-10 74q-9 67 -58 81.5 t-219 14.5h-239v-459h159q70 0 80 58l8 57q4 29 12 36t35 7h113q25 0 31 -9t6 -36v-418q0 -27 -6 -36t-29 -9h-115q-25 0 -33.5 8t-13.5 33l-10 59q-6 33 -25.5 44.5t-52.5 11.5h-159v-436h323q58 0 90 3t58.5 9.5t41 24t25 40.5t23.5 66l14 76q6 23 18 32t37 9h123 q28 0 35 -9.5t4 -35.5l-35 -326q-7 -56 -24.5 -70t-65.5 -14h-1114q-24 0 -34.5 9t-10.5 34zM408 1669l231 193q22 19 38 23.5t58 4.5q43 0 58 -4t38 -24l232 -193q26 -25 17.5 -38t-44.5 -13h-100q-31 0 -45 4t-35 20l-119 91l-123 -91q-22 -16 -37.5 -20t-52.5 -4h-92 q-81 0 -24 51z" />
<glyph unicode="&#xcb;" horiz-adv-x="1443" d="M88 43v107q0 49 39 49q91 0 120 20t29 86v873q0 52 -16.5 73.5t-58.5 26.5q-20 2 -72 2q-24 0 -32.5 9.5t-8.5 31.5v115q0 26 9.5 34.5t37.5 8.5h1071q64 0 82 -15t21 -82l16 -264q2 -29 -6 -39t-37 -10h-125q-26 0 -36.5 8.5t-14.5 36.5l-10 74q-9 67 -58 81.5 t-219 14.5h-239v-459h159q70 0 80 58l8 57q4 29 12 36t35 7h113q25 0 31 -9t6 -36v-418q0 -27 -6 -36t-29 -9h-115q-25 0 -33.5 8t-13.5 33l-10 59q-6 33 -25.5 44.5t-52.5 11.5h-159v-436h323q58 0 90 3t58.5 9.5t41 24t25 40.5t23.5 66l14 76q6 23 18 32t37 9h123 q28 0 35 -9.5t4 -35.5l-35 -326q-7 -56 -24.5 -70t-65.5 -14h-1114q-24 0 -34.5 9t-10.5 34zM365 1769q0 69 49.5 117.5t115.5 48.5q65 0 109.5 -42.5t44.5 -112.5t-49.5 -115t-116.5 -45q-65 0 -109 41t-44 108zM795 1769q0 69 49.5 117.5t116.5 48.5q64 0 108.5 -42.5 t44.5 -112.5t-49.5 -115t-118.5 -45q-65 0 -108 41t-43 108z" />
<glyph unicode="&#xcc;" horiz-adv-x="851" d="M-8 1765l71 152q9 21 24 23.5t46 -11.5l385 -172q19 -8 20.5 -21t-10.5 -36l-22 -53q-14 -32 -64 -21l-432 94q-41 10 -18 45zM86 43v121q0 20 9.5 27.5t37.5 7.5h33q61 0 84.5 21t23.5 85v869q0 64 -23 85t-85 21h-35q-28 0 -36.5 8t-8.5 29v119q0 26 9 34.5t36 8.5h586 q28 0 37.5 -8.5t9.5 -34.5v-119q0 -22 -8.5 -29.5t-38.5 -7.5h-37q-62 0 -83.5 -19.5t-21.5 -86.5v-869q0 -67 22.5 -86.5t86.5 -19.5h35q29 0 37 -7.5t8 -27.5v-121q0 -26 -8.5 -34.5t-36.5 -8.5h-586q-28 0 -37.5 8.5t-9.5 34.5z" />
<glyph unicode="&#xcd;" horiz-adv-x="851" d="M86 43v121q0 20 9.5 27.5t37.5 7.5h33q61 0 84.5 21t23.5 85v869q0 64 -23 85t-85 21h-35q-27 0 -36 8t-9 29v119q0 26 9 34.5t36 8.5h588q27 0 36 -8.5t9 -34.5v-119q0 -22 -8.5 -29.5t-36.5 -7.5h-39q-61 0 -81.5 -19t-20.5 -87v-869q0 -68 21.5 -87t84.5 -19h35 q29 0 38 -7.5t9 -27.5v-121q0 -26 -9.5 -34.5t-37.5 -8.5h-586q-28 0 -37.5 8.5t-9.5 34.5zM278 1738q1 13 23 21l365 176q29 16 47 13.5t32 -27.5l68 -117q16 -26 9 -41t-40 -24l-405 -109q-46 -13 -62 19l-26 55q-12 21 -11 34z" />
<glyph unicode="&#xce;" horiz-adv-x="851" d="M86 43v121q0 20 9.5 27.5t37.5 7.5h33q61 0 84.5 21t23.5 85v869q0 64 -23 85t-85 21h-35q-27 0 -36 8t-9 29v119q0 26 9 34.5t36 8.5h588q27 0 36 -8.5t9 -34.5v-119q0 -22 -8.5 -29.5t-36.5 -7.5h-39q-61 0 -81.5 -19t-20.5 -87v-869q0 -68 21.5 -87t84.5 -19h35 q29 0 38 -7.5t9 -27.5v-121q0 -26 -9.5 -34.5t-37.5 -8.5h-586q-28 0 -37.5 8.5t-9.5 34.5zM92 1669l232 193q22 19 38 23.5t58 4.5q43 0 58 -4t38 -24l232 -193q26 -25 17 -38t-44 -13h-100q-31 0 -45 4t-35 20l-119 91l-123 -91q-22 -16 -37.5 -20t-52.5 -4h-92 q-82 0 -25 51z" />
<glyph unicode="&#xcf;" horiz-adv-x="851" d="M49 1769q0 69 50 117.5t116 48.5q65 0 109.5 -42.5t44.5 -112.5t-49.5 -115t-116.5 -45q-65 0 -109.5 41t-44.5 108zM86 43v121q0 20 9.5 27.5t37.5 7.5h33q61 0 84.5 21t23.5 85v869q0 64 -23 85t-85 21h-35q-27 0 -36 8t-9 29v119q0 26 9 34.5t36 8.5h588q27 0 36 -8.5 t9 -34.5v-119q0 -22 -8.5 -29.5t-36.5 -7.5h-39q-61 0 -81.5 -19t-20.5 -87v-869q0 -68 21.5 -87t84.5 -19h35q29 0 38 -7.5t9 -27.5v-121q0 -26 -9.5 -34.5t-37.5 -8.5h-586q-28 0 -37.5 8.5t-9.5 34.5zM479 1769q0 69 49.5 117.5t116.5 48.5q64 0 109 -42.5t45 -112.5 t-49.5 -115t-118.5 -45q-65 0 -108.5 41t-43.5 108z" />
<glyph unicode="&#xd0;" horiz-adv-x="1722" d="M90 43v107q0 49 39 49q91 0 120.5 20t29.5 86v285h-144q-25 0 -33 8.5t-8 32.5v117q0 22 7.5 29t33.5 7h144v394q0 52 -17 73.5t-59 26.5q-20 2 -74 2q-22 0 -30.5 10t-8.5 31v115q0 26 9.5 34.5t37.5 8.5h594q465 0 690.5 -184.5t225.5 -557.5q0 -372 -236.5 -554.5 t-685.5 -182.5h-590q-26 0 -35.5 8.5t-9.5 34.5zM580 215h143q315 0 459.5 122t144.5 400q0 150 -38.5 254t-118.5 166t-192 89.5t-269 27.5h-129v-490h407q26 0 33.5 -7t7.5 -29v-117q0 -24 -8 -32.5t-35 -8.5h-405v-375z" />
<glyph unicode="&#xd1;" horiz-adv-x="1847" d="M86 43v119q0 21 9 29t36 8h33q63 0 86.5 19.5t23.5 78.5v899q-3 50 -26 67t-78 17h-37q-28 0 -36.5 7.5t-8.5 27.5v123q0 24 10 32.5t35 8.5h326q48 0 76 -31l821 -952v686q0 62 -22 80t-85 18h-35q-29 0 -37 7t-8 28v121q0 26 8.5 34.5t36.5 8.5h521q27 0 36 -8t9 -35 v-119q0 -21 -8.5 -29t-36.5 -8h-33q-61 0 -85 -19.5t-24 -78.5v-1166q0 -19 -9.5 -25.5t-39.5 -6.5h-78q-26 0 -40.5 4.5t-28.5 21.5l-885 994v-707q0 -62 21.5 -80t84.5 -18h35q28 0 36.5 -7t8.5 -28v-121q0 -26 -9 -34.5t-36 -8.5h-522q-27 0 -36 8t-9 35zM571 1659 q0 99 55 154t154 55q94 0 142 -43q35 -27 69 -27q67 0 74 41q3 13 9 18t24 5h98q29 0 29 -29q0 -100 -55 -155.5t-156 -55.5t-142 41q-11 11 -17 15.5t-21 9t-37 4.5q-56 0 -66 -41q-5 -14 -11.5 -18.5t-25.5 -4.5h-94q-29 0 -29 31z" />
<glyph unicode="&#xd2;" d="M74 735q0 111 23.5 214t83.5 205.5t151 177.5t237.5 122t331.5 47q179 0 322.5 -42.5t237.5 -113.5t157 -170t90 -207t27 -229q0 -77 -12 -151.5t-40.5 -151.5t-71.5 -144t-110 -126.5t-151 -101.5t-198.5 -66.5t-248.5 -24.5q-179 0 -322 42.5t-236.5 114t-155.5 170.5 t-88.5 206.5t-26.5 228.5zM393 737q0 -75 13 -145.5t48 -146.5t90.5 -132t148.5 -92.5t212 -36.5q116 0 206.5 34t146 88t91.5 128.5t50 147.5t14 153q0 74 -12.5 144.5t-47.5 147.5t-90 133t-148 93t-214 37q-114 0 -204 -33.5t-146 -87.5t-92.5 -128t-51 -148.5 t-14.5 -155.5zM473 1765l72 152q9 21 23.5 23.5t45.5 -11.5l385 -172q19 -9 21 -21.5t-10 -35.5l-23 -53q-14 -32 -63 -21l-432 94q-42 10 -19 45z" />
<glyph unicode="&#xd3;" d="M74 735q0 111 23.5 214t83.5 205.5t151 177.5t237.5 122t331.5 47q179 0 322.5 -42.5t237.5 -113.5t157 -170t90 -207t27 -229q0 -77 -12 -151.5t-40.5 -151.5t-71.5 -144t-110 -126.5t-151 -101.5t-198.5 -66.5t-248.5 -24.5q-179 0 -322 42.5t-236.5 114t-155.5 170.5 t-88.5 206.5t-26.5 228.5zM393 737q0 -75 13 -145.5t48 -146.5t90.5 -132t148.5 -92.5t212 -36.5q116 0 206.5 34t146 88t91.5 128.5t50 147.5t14 153q0 74 -12.5 144.5t-47.5 147.5t-90 133t-148 93t-214 37q-114 0 -204 -33.5t-146 -87.5t-92.5 -128t-51 -148.5 t-14.5 -155.5zM759 1738q1 13 23 21l365 176q29 16 47.5 13.5t32.5 -27.5l67 -117q16 -26 9.5 -41t-39.5 -24l-406 -109q-45 -13 -61 19l-27 55q-12 21 -11 34z" />
<glyph unicode="&#xd4;" d="M74 735q0 111 23.5 214t83.5 205.5t151 177.5t237.5 122t331.5 47q179 0 322.5 -42.5t237.5 -113.5t157 -170t90 -207t27 -229q0 -77 -12 -151.5t-40.5 -151.5t-71.5 -144t-110 -126.5t-151 -101.5t-198.5 -66.5t-248.5 -24.5q-179 0 -322 42.5t-236.5 114t-155.5 170.5 t-88.5 206.5t-26.5 228.5zM393 737q0 -75 13 -145.5t48 -146.5t90.5 -132t148.5 -92.5t212 -36.5q116 0 206.5 34t146 88t91.5 128.5t50 147.5t14 153q0 74 -12.5 144.5t-47.5 147.5t-90 133t-148 93t-214 37q-114 0 -204 -33.5t-146 -87.5t-92.5 -128t-51 -148.5 t-14.5 -155.5zM571 1669l232 193q22 19 38 23.5t58 4.5q43 0 58 -4t38 -24l232 -193q26 -25 17.5 -38t-44.5 -13h-100q-31 0 -45 4t-35 20l-119 91l-123 -91q-22 -16 -37.5 -20t-52.5 -4h-92q-82 0 -25 51z" />
<glyph unicode="&#xd5;" d="M74 735q0 111 23.5 214t83.5 205.5t151 177.5t237.5 122t331.5 47q179 0 322.5 -42.5t237.5 -113.5t157 -170t90 -207t27 -229q0 -77 -12 -151.5t-40.5 -151.5t-71.5 -144t-110 -126.5t-151 -101.5t-198.5 -66.5t-248.5 -24.5q-179 0 -322 42.5t-236.5 114t-155.5 170.5 t-88.5 206.5t-26.5 228.5zM393 737q0 -75 13 -145.5t48 -146.5t90.5 -132t148.5 -92.5t212 -36.5q116 0 206.5 34t146 88t91.5 128.5t50 147.5t14 153q0 74 -12.5 144.5t-47.5 147.5t-90 133t-148 93t-214 37q-114 0 -204 -33.5t-146 -87.5t-92.5 -128t-51 -148.5 t-14.5 -155.5zM586 1659q0 99 55 154t154 55q93 0 141 -43q35 -27 70 -27q66 0 73 41q3 13 9 18t24 5h98q29 0 29 -29q0 -100 -55 -155.5t-156 -55.5q-100 0 -141 41q-10 10 -16.5 15t-22 9.5t-37.5 4.5q-56 0 -66 -41q-5 -14 -11 -18.5t-25 -4.5h-95q-14 0 -21 6.5t-7 24.5 z" />
<glyph unicode="&#xd6;" d="M74 735q0 111 23.5 214t83.5 205.5t151 177.5t237.5 122t331.5 47q179 0 322.5 -42.5t237.5 -113.5t157 -170t90 -207t27 -229q0 -77 -12 -151.5t-40.5 -151.5t-71.5 -144t-110 -126.5t-151 -101.5t-198.5 -66.5t-248.5 -24.5q-179 0 -322 42.5t-236.5 114t-155.5 170.5 t-88.5 206.5t-26.5 228.5zM393 737q0 -75 13 -145.5t48 -146.5t90.5 -132t148.5 -92.5t212 -36.5q116 0 206.5 34t146 88t91.5 128.5t50 147.5t14 153q0 74 -12.5 144.5t-47.5 147.5t-90 133t-148 93t-214 37q-114 0 -204 -33.5t-146 -87.5t-92.5 -128t-51 -148.5 t-14.5 -155.5zM528 1769q0 69 50 117.5t116 48.5q65 0 109.5 -42.5t44.5 -112.5t-49.5 -115t-116.5 -45q-65 0 -109.5 41t-44.5 108zM958 1769q0 69 49.5 117.5t116.5 48.5q64 0 109 -42.5t45 -112.5t-49.5 -115t-118.5 -45q-65 0 -108.5 41t-43.5 108z" />
<glyph unicode="&#xd7;" horiz-adv-x="1253" d="M92 180q0 36 37 70l336 305l-336 305q-37 34 -37 70q0 42 39 76q38 38 76 38q34 0 86 -43l334 -286l336 286q52 43 86 43q35 0 73 -38q39 -34 39 -76q0 -36 -37 -70l-336 -305l336 -305q37 -34 37 -70q0 -42 -39 -76q-38 -38 -73 -38q-34 0 -86 43l-336 286l-334 -286 q-52 -43 -86 -43q-38 0 -76 38q-39 34 -39 76z" />
<glyph unicode="&#xd8;" d="M74 735q0 111 23.5 214t83.5 205.5t151 177.5t237.5 122t331.5 47q92 0 199 -14l16 35q8 20 18 27.5t29 4.5l223 -43q22 -4 25 -13.5t-8 -31.5l-31 -67q185 -98 274 -273t89 -387q0 -77 -12 -151.5t-40.5 -151.5t-71.5 -144t-110 -126.5t-151 -101.5t-198.5 -66.5 t-248.5 -24.5q-93 0 -182 13l-16 -35q-9 -21 -19 -27t-31 -2l-219 43q-24 5 -26.5 11t8.5 32l26 60q-98 50 -170.5 123.5t-115.5 161.5t-63.5 183t-20.5 199zM393 737q0 -120 37.5 -236.5t122.5 -195.5l453 977q-44 8 -105 8q-114 0 -204 -33.5t-146 -87.5t-92.5 -128 t-51 -148.5t-14.5 -155.5zM815 188q29 -4 90 -4q116 0 206.5 34t146 88t91.5 128.5t50 147.5t14 153q0 117 -35 230t-116 194z" />
<glyph unicode="&#xd9;" horiz-adv-x="1810" d="M45 1317v119q0 26 9 34.5t36 8.5h586q28 0 37.5 -8.5t9.5 -34.5v-119q0 -22 -8.5 -29.5t-38.5 -7.5h-37q-62 0 -83 -19t-21 -87v-599q0 -180 99 -269t288 -89q191 0 296 92t105 271v610q0 55 -22 72.5t-82 17.5h-37q-27 0 -37 8t-10 29v119q0 25 10.5 34t36.5 9h536 q28 0 37.5 -8.5t9.5 -34.5v-119q0 -22 -9 -29.5t-38 -7.5h-37q-62 0 -83 -16t-21 -74v-621q0 -292 -170 -437.5t-494 -145.5q-328 0 -504 140.5t-176 412.5v635q0 64 -23 85t-85 21h-35q-28 0 -36.5 8t-8.5 29zM481 1765l72 152q9 21 24 23.5t46 -11.5l385 -172 q19 -8 20.5 -21t-10.5 -36l-23 -53q-14 -32 -63 -21l-432 94q-42 10 -19 45z" />
<glyph unicode="&#xda;" horiz-adv-x="1810" d="M45 1317v119q0 26 9 34.5t36 8.5h586q28 0 37.5 -8.5t9.5 -34.5v-119q0 -22 -8.5 -29.5t-38.5 -7.5h-37q-62 0 -83 -19t-21 -87v-599q0 -180 99 -269t288 -89q191 0 296 92t105 271v610q0 55 -22 72.5t-82 17.5h-37q-27 0 -37 8t-10 29v119q0 25 10.5 34t36.5 9h536 q28 0 37.5 -8.5t9.5 -34.5v-119q0 -22 -9 -29.5t-38 -7.5h-37q-62 0 -83 -16t-21 -74v-621q0 -292 -170 -437.5t-494 -145.5q-328 0 -504 140.5t-176 412.5v635q0 64 -23 85t-85 21h-35q-28 0 -36.5 8t-8.5 29zM765 1738q1 13 23 21l365 176q29 16 47.5 13.5t32.5 -27.5 l67 -117q16 -26 9.5 -41t-39.5 -24l-406 -109q-45 -13 -61 19l-27 55q-12 21 -11 34z" />
<glyph unicode="&#xdb;" horiz-adv-x="1810" d="M45 1317v119q0 26 9 34.5t36 8.5h586q28 0 37.5 -8.5t9.5 -34.5v-119q0 -22 -8.5 -29.5t-38.5 -7.5h-37q-62 0 -83 -19t-21 -87v-599q0 -180 99 -269t288 -89q191 0 296 92t105 271v610q0 55 -22 72.5t-82 17.5h-37q-27 0 -37 8t-10 29v119q0 25 10.5 34t36.5 9h536 q28 0 37.5 -8.5t9.5 -34.5v-119q0 -22 -9 -29.5t-38 -7.5h-37q-62 0 -83 -16t-21 -74v-621q0 -292 -170 -437.5t-494 -145.5q-328 0 -504 140.5t-176 412.5v635q0 64 -23 85t-85 21h-35q-28 0 -36.5 8t-8.5 29zM582 1669l231 193q22 19 38 23.5t58 4.5q43 0 59 -4t38 -24 l231 -193q26 -25 17.5 -38t-44.5 -13h-100q-31 0 -45 4t-35 20l-119 91l-123 -91q-22 -16 -37.5 -20t-52.5 -4h-92q-81 0 -24 51z" />
<glyph unicode="&#xdc;" horiz-adv-x="1810" d="M45 1317v119q0 26 9 34.5t36 8.5h586q28 0 37.5 -8.5t9.5 -34.5v-119q0 -22 -8.5 -29.5t-38.5 -7.5h-37q-62 0 -83 -19t-21 -87v-599q0 -180 99 -269t288 -89q191 0 296 92t105 271v610q0 55 -22 72.5t-82 17.5h-37q-27 0 -37 8t-10 29v119q0 25 10.5 34t36.5 9h536 q28 0 37.5 -8.5t9.5 -34.5v-119q0 -22 -9 -29.5t-38 -7.5h-37q-62 0 -83 -16t-21 -74v-621q0 -292 -170 -437.5t-494 -145.5q-328 0 -504 140.5t-176 412.5v635q0 64 -23 85t-85 21h-35q-28 0 -36.5 8t-8.5 29zM537 1769q0 69 49.5 117.5t115.5 48.5q65 0 109.5 -42.5 t44.5 -112.5t-49.5 -115t-116.5 -45q-65 0 -109 41t-44 108zM967 1769q0 69 49.5 117.5t116.5 48.5q64 0 108.5 -42.5t44.5 -112.5t-49.5 -115t-118.5 -45q-65 0 -108 41t-43 108z" />
<glyph unicode="&#xdd;" horiz-adv-x="1488" d="M-10 1327v109q0 26 8.5 34.5t34.5 8.5h549q27 0 36 -8t9 -35v-103q0 -47 -45 -47h-29q-79 0 -35 -65l258 -426l281 428q15 22 12 34.5t-13.5 17.5t-27.5 5h-35q-45 0 -45 55v101q0 27 9 35t36 8h461q28 0 36.5 -8.5t8.5 -34.5v-109q0 -47 -45 -47h-45q-26 0 -43 -13 t-53 -63l-416 -583v-316q0 -68 21 -87t83 -19h37q28 0 36.5 -7.5t8.5 -27.5v-121q0 -26 -9 -34.5t-36 -8.5h-587q-27 0 -36 8.5t-9 34.5v121q0 20 9 27.5t36 7.5h34q56 0 80 18t27 70v299l-377 577q-48 70 -78 93.5t-65 23.5h-35q-28 0 -37.5 12t-9.5 35zM642.5 1738 q1.5 13 23.5 21l364 176q29 16 47.5 13.5t32.5 -27.5l68 -117q16 -26 9 -41t-40 -24l-406 -109q-45 -13 -61 19l-27 55q-12 21 -10.5 34z" />
<glyph unicode="&#xde;" horiz-adv-x="1433" d="M190 -274v1740q0 51 58 54h178q51 0 51 -52v-356q68 8 152 8q753 0 753 -506q0 -127 -62.5 -225.5t-167 -156.5t-228.5 -87.5t-260 -29.5q-93 0 -187 16v-403q0 -51 -55 -54h-178q-54 0 -54 52zM477 356q74 -32 195 -32q180 0 284.5 77.5t104.5 212.5q0 134 -112 205.5 t-279 71.5q-116 0 -193 -17v-518z" />
<glyph unicode="&#xdf;" horiz-adv-x="1484" d="M158 -418v1456q0 105 29.5 186t94.5 144.5t178 97t271 33.5q298 0 443 -113t145 -307q0 -126 -59.5 -215t-145.5 -110q127 -33 212 -124.5t85 -240.5q0 -197 -151 -299t-416 -102q-198 0 -301 45q-14 8 -18.5 14t-4.5 19v137q0 22 7 29.5t22 7.5q12 0 50.5 -13t100 -26 t129.5 -13q127 0 202 53t75 167q0 115 -84.5 178t-245.5 63h-94q-17 0 -23 6t-6 23v166q0 14 1 19t7.5 8t20.5 3h86q118 0 185 56.5t67 144.5q0 103 -77.5 157t-211.5 54q-287 0 -287 -248v-1454q0 -49 -53 -49h-186q-47 0 -47 47z" />
<glyph unicode="&#xe0;" horiz-adv-x="1300" d="M68 295q0 87 32.5 151.5t88 105t142 65t182.5 33.5t222 9h86v56q0 100 -49.5 144t-165.5 44q-75 0 -160 -20q5 -25 5 -33q0 -72 -50 -118t-120 -46q-66 0 -110 42.5t-44 111.5q0 144 120.5 209t360.5 65q128 0 215.5 -17.5t155 -62t99.5 -125t32 -202.5v-418 q0 -94 68 -94q22 0 42 4t29 4q27 3 27 -21v-123q0 -39 -33 -49q-55 -22 -176 -22q-175 0 -227 125q-132 -125 -387 -125q-385 0 -385 307zM195 1389l71 151q9 21 24 23.5t46 -11.5l385 -172q19 -8 20.5 -21t-10.5 -36l-22 -53q-14 -32 -64 -21l-432 94q-42 10 -18 46z M354 303q0 -119 170 -119q134 0 215.5 72t81.5 199v22h-86q-187 0 -284 -39.5t-97 -134.5z" />
<glyph unicode="&#xe1;" horiz-adv-x="1300" d="M68 295q0 87 32.5 151.5t88 105t142 65t182.5 33.5t222 9h86v56q0 100 -49.5 144t-165.5 44q-75 0 -160 -20q5 -25 5 -33q0 -72 -50 -118t-120 -46q-66 0 -110 42.5t-44 111.5q0 144 120.5 209t360.5 65q128 0 215.5 -17.5t155 -62t99.5 -125t32 -202.5v-418 q0 -94 68 -94q22 0 42 4t29 4q27 3 27 -21v-123q0 -39 -33 -49q-55 -22 -176 -22q-175 0 -227 125q-132 -125 -387 -125q-385 0 -385 307zM354 303q0 -119 170 -119q134 0 215.5 72t81.5 199v22h-86q-187 0 -284 -39.5t-97 -134.5zM481 1361q1 13 23 21l364 177q29 16 47 13 t33 -28l68 -117q16 -26 9 -41t-40 -24l-405 -109q-46 -13 -62 19l-26 55q-12 21 -11 34z" />
<glyph unicode="&#xe2;" horiz-adv-x="1300" d="M68 295q0 87 32.5 151.5t88 105t142 65t182.5 33.5t222 9h86v56q0 100 -49.5 144t-165.5 44q-75 0 -160 -20q5 -25 5 -33q0 -72 -50 -118t-120 -46q-66 0 -110 42.5t-44 111.5q0 144 120.5 209t360.5 65q128 0 215.5 -17.5t155 -62t99.5 -125t32 -202.5v-418 q0 -94 68 -94q22 0 42 4t29 4q27 3 27 -21v-123q0 -39 -33 -49q-55 -22 -176 -22q-175 0 -227 125q-132 -125 -387 -125q-385 0 -385 307zM295 1292l231 193q22 19 38.5 23.5t58.5 4.5q43 0 58 -4t38 -24l231 -193q26 -25 17.5 -38t-43.5 -13h-101q-31 0 -45 4t-35 21 l-118 90l-123 -90q-23 -16 -38 -20.5t-52 -4.5h-93q-81 0 -24 51zM354 303q0 -119 170 -119q134 0 215.5 72t81.5 199v22h-86q-187 0 -284 -39.5t-97 -134.5z" />
<glyph unicode="&#xe3;" horiz-adv-x="1300" d="M68 295q0 87 32.5 151.5t88 105t142 65t182.5 33.5t222 9h86v56q0 100 -49.5 144t-165.5 44q-75 0 -160 -20q5 -25 5 -33q0 -72 -50 -118t-120 -46q-66 0 -110 42.5t-44 111.5q0 144 120.5 209t360.5 65q128 0 215.5 -17.5t155 -62t99.5 -125t32 -202.5v-418 q0 -94 68 -94q22 0 42 4t29 4q27 3 27 -21v-123q0 -39 -33 -49q-55 -22 -176 -22q-175 0 -227 125q-132 -125 -387 -125q-385 0 -385 307zM307 1280q0 99 55 154t154 55q93 0 141 -43q35 -27 70 -27q67 0 74 41q3 13 9 18t24 5h98q29 0 29 -29q0 -100 -55 -155.5t-156 -55.5 t-142 41q-10 10 -16.5 15t-22 9.5t-37.5 4.5q-55 0 -65 -41q-5 -14 -11.5 -18.5t-25.5 -4.5h-94q-29 0 -29 31zM354 303q0 -119 170 -119q134 0 215.5 72t81.5 199v22h-86q-187 0 -284 -39.5t-97 -134.5z" />
<glyph unicode="&#xe4;" horiz-adv-x="1300" d="M68 295q0 87 32.5 151.5t88 105t142 65t182.5 33.5t222 9h86v56q0 100 -49.5 144t-165.5 44q-75 0 -160 -20q5 -25 5 -33q0 -72 -50 -118t-120 -46q-66 0 -110 42.5t-44 111.5q0 144 120.5 209t360.5 65q128 0 215.5 -17.5t155 -62t99.5 -125t32 -202.5v-418 q0 -94 68 -94q22 0 42 4t29 4q27 3 27 -21v-123q0 -39 -33 -49q-55 -22 -176 -22q-175 0 -227 125q-132 -125 -387 -125q-385 0 -385 307zM250 1393q0 69 50 117.5t116 48.5q65 0 109 -43t44 -113t-49.5 -115t-116.5 -45q-65 0 -109 41.5t-44 108.5zM354 303 q0 -119 170 -119q134 0 215.5 72t81.5 199v22h-86q-187 0 -284 -39.5t-97 -134.5zM680 1393q0 69 49.5 117.5t116.5 48.5q64 0 108.5 -43t44.5 -113t-49.5 -115t-118.5 -45q-65 0 -108 41t-43 109z" />
<glyph unicode="&#xe5;" horiz-adv-x="1300" d="M68 295q0 87 32.5 151.5t88 105t142 65t182.5 33.5t222 9h86v56q0 100 -49.5 144t-165.5 44q-75 0 -160 -20q5 -25 5 -33q0 -72 -50 -118t-120 -46q-66 0 -110 42.5t-44 111.5q0 144 120.5 209t360.5 65q128 0 215.5 -17.5t155 -62t99.5 -125t32 -202.5v-418 q0 -94 68 -94q22 0 42 4t29 4q27 3 27 -21v-123q0 -39 -33 -49q-55 -22 -176 -22q-175 0 -227 125q-132 -125 -387 -125q-385 0 -385 307zM334 1393q0 77 78.5 124.5t210.5 47.5q131 0 209.5 -47.5t78.5 -124.5q0 -76 -79 -124t-209 -48q-131 0 -210 48t-79 124zM354 303 q0 -119 170 -119q134 0 215.5 72t81.5 199v22h-86q-187 0 -284 -39.5t-97 -134.5zM535 1393q0 -29 25.5 -45.5t62.5 -16.5q38 0 62 16t24 46t-23.5 47.5t-62.5 17.5q-38 0 -63 -17.5t-25 -47.5z" />
<glyph unicode="&#xe6;" horiz-adv-x="2019" d="M68 301q0 86 31 149.5t85.5 103t140.5 63.5t183 33t227 9h86v89q0 90 -55.5 131t-179.5 41q-69 0 -142 -13q7 -25 7 -47q0 -72 -50 -118t-120 -46q-66 0 -110 42.5t-44 111.5v6q0 144 110 201t341 57q162 0 270.5 -28t171.5 -95q158 123 418 123q247 0 382.5 -101 t135.5 -282q0 -162 -132 -252t-401 -90q-137 0 -282 27q26 -112 108.5 -170t235.5 -58q133 0 235 25q16 5 51.5 16.5t61 18.5t37.5 8q16 1 22 -6.5t6 -22.5v-118q0 -30 -8.5 -42.5t-38.5 -25.5q-151 -68 -391 -68q-415 0 -555 228q-49 -98 -163 -155.5t-283 -57.5 q-194 0 -292.5 79.5t-98.5 233.5zM354 303q0 -119 172 -119q133 0 214 72t81 199v22h-86q-187 0 -284 -39.5t-97 -134.5zM1130 604q145 -29 271 -29q133 0 203.5 39t70.5 127q0 83 -64.5 131t-172.5 48q-144 0 -219.5 -86.5t-88.5 -229.5z" />
<glyph unicode="&#xe7;" horiz-adv-x="1243" d="M70 530q0 283 170.5 433.5t461.5 150.5q100 0 180.5 -19t132 -49t86.5 -70t49.5 -79.5t14.5 -79.5q0 -77 -47.5 -126.5t-130.5 -49.5q-80 0 -131 47t-51 123q0 45 18 86q-70 8 -118 8q-89 0 -154 -27.5t-101.5 -77.5t-53.5 -110.5t-17 -134.5q0 -176 92.5 -259t296.5 -83 q30 0 61 2t54.5 4.5t51.5 7.5t44.5 8.5t41.5 10t34 9.5t31 9.5t24 7.5q44 14 57 9t13 -37v-131q0 -27 -6 -38t-27 -20q-56 -24 -169 -47.5t-257 -23.5q-39 0 -105 4l-12 -29q240 7 240 -164q0 -98 -82.5 -146t-235.5 -48q-21 0 -50 1.5t-61.5 3.5t-45.5 3q-17 0 -17 29v71 q0 16 4.5 19.5t16.5 3.5q107 -11 133 -11q137 0 137 70q0 57 -98 57q-20 0 -57 -3t-48 -3q-27 0 -18 25l63 139q-415 89 -415 524z" />
<glyph unicode="&#xe8;" horiz-adv-x="1236" d="M70 543q0 260 147.5 415.5t421.5 155.5q239 0 368.5 -94t129.5 -266q0 -161 -120.5 -253.5t-365.5 -92.5q-149 0 -270 26q20 -125 98.5 -181t237.5 -56q178 0 307 45q75 28 92 28q23 0 23 -28v-131q0 -20 -9.5 -32.5t-37.5 -25.5q-62 -29 -173.5 -48t-226.5 -19 q-161 0 -282 40.5t-194.5 116t-109.5 175.5t-36 225zM250 1389l72 151q9 21 23.5 23.5t45.5 -11.5l385 -172q19 -8 20.5 -21t-10.5 -36l-22 -53q-14 -32 -64 -21l-432 94q-42 10 -18 46zM377 623q142 -29 248 -29q249 0 249 168q0 83 -59 120.5t-176 37.5q-234 0 -262 -297z " />
<glyph unicode="&#xe9;" horiz-adv-x="1236" d="M70 543q0 260 147.5 415.5t421.5 155.5q239 0 368.5 -94t129.5 -266q0 -161 -120.5 -253.5t-365.5 -92.5q-149 0 -270 26q20 -125 98.5 -181t237.5 -56q178 0 307 45q75 28 92 28q23 0 23 -28v-131q0 -20 -9.5 -32.5t-37.5 -25.5q-62 -29 -173.5 -48t-226.5 -19 q-161 0 -282 40.5t-194.5 116t-109.5 175.5t-36 225zM377 623q142 -29 248 -29q249 0 249 168q0 83 -59 120.5t-176 37.5q-234 0 -262 -297zM435.5 1361q1.5 13 23.5 21l364 177q29 16 47 13t33 -28l68 -117q16 -26 9 -41t-40 -24l-405 -109q-46 -13 -62 19l-27 55 q-12 21 -10.5 34z" />
<glyph unicode="&#xea;" horiz-adv-x="1236" d="M70 543q0 260 147.5 415.5t421.5 155.5q239 0 368.5 -94t129.5 -266q0 -161 -120.5 -253.5t-365.5 -92.5q-149 0 -270 26q20 -125 98.5 -181t237.5 -56q178 0 307 45q75 28 92 28q23 0 23 -28v-131q0 -20 -9.5 -32.5t-37.5 -25.5q-62 -29 -173.5 -48t-226.5 -19 q-161 0 -282 40.5t-194.5 116t-109.5 175.5t-36 225zM348 1292l232 193q22 19 38 23.5t58 4.5q43 0 58 -4t38 -24l232 -193q26 -25 17 -38t-44 -13h-100q-31 0 -45 4t-35 21l-119 90l-123 -90q-23 -16 -38 -20.5t-52 -4.5h-92q-82 0 -25 51zM377 623q142 -29 248 -29 q249 0 249 168q0 83 -59 120.5t-176 37.5q-234 0 -262 -297z" />
<glyph unicode="&#xeb;" horiz-adv-x="1236" d="M70 543q0 260 147.5 415.5t421.5 155.5q239 0 368.5 -94t129.5 -266q0 -161 -120.5 -253.5t-365.5 -92.5q-149 0 -270 26q20 -125 98.5 -181t237.5 -56q178 0 307 45q75 28 92 28q23 0 23 -28v-131q0 -20 -9.5 -32.5t-37.5 -25.5q-62 -29 -173.5 -48t-226.5 -19 q-161 0 -282 40.5t-194.5 116t-109.5 175.5t-36 225zM303 1393q0 69 50 117.5t116 48.5q65 0 109.5 -43t44.5 -113t-49.5 -115t-116.5 -45q-65 0 -109.5 41.5t-44.5 108.5zM377 623q142 -29 248 -29q249 0 249 168q0 83 -59 120.5t-176 37.5q-234 0 -262 -297zM733 1393 q0 69 49.5 117.5t116.5 48.5q64 0 109 -43t45 -113t-49.5 -115t-118.5 -45q-65 0 -108.5 41.5t-43.5 108.5z" />
<glyph unicode="&#xec;" horiz-adv-x="757" d="M-35 1389l72 151q9 21 23.5 23.5t45.5 -11.5l386 -172q19 -8 20.5 -21t-10.5 -36l-23 -53q-14 -32 -63 -21l-432 94q-43 10 -19 46zM59 43v121q0 20 8.5 27.5t36.5 7.5h39q62 0 84.5 19t22.5 83v502q-2 41 -28 56t-105 15q-41 0 -41 46v112q0 23 9.5 32.5t37.5 10.5 l362 19q30 0 42 -13.5t12 -44.5v-735q0 -65 21.5 -83.5t84.5 -18.5h37q28 0 37.5 -7.5t9.5 -27.5v-121q0 -26 -9.5 -34.5t-37.5 -8.5h-578q-27 0 -36 8.5t-9 34.5z" />
<glyph unicode="&#xed;" horiz-adv-x="757" d="M59 43v121q0 20 8.5 27.5t36.5 7.5h41q58 0 81 15.5t26 66.5v510q0 50 -23.5 66.5t-109.5 16.5q-43 0 -43 46v112q0 23 10.5 32t36.5 11l362 19q30 0 42 -13.5t12 -44.5v-735q0 -65 21.5 -83.5t84.5 -18.5h39q28 0 36.5 -7.5t8.5 -27.5v-121q0 -26 -9 -34.5t-36 -8.5 h-580q-27 0 -36 8.5t-9 34.5zM251 1361q1 13 23 21l365 177q29 16 47 13t33 -28l67 -117q16 -26 9.5 -41t-39.5 -24l-406 -109q-45 -13 -61 19l-27 55q-12 21 -11 34z" />
<glyph unicode="&#xee;" horiz-adv-x="757" d="M59 43v121q0 20 8.5 27.5t36.5 7.5h41q58 0 81 15.5t26 66.5v510q0 50 -23.5 66.5t-109.5 16.5q-43 0 -43 46v112q0 23 10.5 32t36.5 11l362 19q30 0 42 -13.5t12 -44.5v-735q0 -65 21.5 -83.5t84.5 -18.5h39q28 0 36.5 -7.5t8.5 -27.5v-121q0 -26 -9 -34.5t-36 -8.5 h-580q-27 0 -36 8.5t-9 34.5zM66 1292l231 193q22 19 38 23.5t58 4.5q43 0 58 -4t38 -24l232 -193q26 -25 17.5 -38t-44.5 -13h-100q-31 0 -45 4t-35 21l-119 90l-123 -90q-23 -16 -38 -20.5t-52 -4.5h-92q-81 0 -24 51z" />
<glyph unicode="&#xef;" horiz-adv-x="757" d="M20 1393q0 69 50 117.5t116 48.5q65 0 109.5 -43t44.5 -113t-49.5 -115t-116.5 -45q-65 0 -109.5 41.5t-44.5 108.5zM59 43v121q0 20 8.5 27.5t36.5 7.5h41q58 0 81 15.5t26 66.5v510q0 50 -23.5 66.5t-109.5 16.5q-43 0 -43 46v112q0 23 10.5 32t36.5 11l362 19 q30 0 42 -13.5t12 -44.5v-735q0 -65 21.5 -83.5t84.5 -18.5h39q28 0 36.5 -7.5t8.5 -27.5v-121q0 -26 -9 -34.5t-36 -8.5h-580q-27 0 -36 8.5t-9 34.5zM451 1393q0 70 49 118t116 48q64 0 109 -43t45 -113t-49.5 -115t-118.5 -45q-65 0 -108 41t-43 109z" />
<glyph unicode="&#xf0;" horiz-adv-x="1343" d="M59 453q0 91 35.5 175t100.5 150.5t166 106t223 39.5q116 0 228 -46.5t171 -129.5q-32 179 -176 323l-242 -82q-78 -29 -121 78q-7 19 -8.5 33.5t4.5 26.5t13.5 20.5t25.5 17.5t33 15t43 16l76 25q-134 105 -170 137q-21 16 -21 28t15 27l114 107q18 18 39 18 q11 0 35 -12q157 -102 275 -209l272 92q77 30 117 -78q19 -36 6.5 -64t-62.5 -46l-184 -64q190 -248 190 -561q0 -95 -17 -179t-61 -166.5t-112.5 -141.5t-179.5 -95.5t-254 -36.5t-256 40.5t-180.5 108.5t-102.5 151.5t-35 175.5zM371 440q0 -101 68.5 -174t195.5 -73 q129 0 200.5 68t71.5 188q0 106 -82 174.5t-196 68.5q-117 0 -187.5 -74.5t-70.5 -177.5z" />
<glyph unicode="&#xf1;" horiz-adv-x="1482" d="M57 43v121q0 20 8.5 27.5t36.5 7.5h39q58 0 81 15.5t26 66.5v510q0 50 -23.5 66.5t-109.5 16.5q-41 0 -41 46v112q0 23 9.5 32.5t35.5 10.5l364 19q30 0 42 -13.5t12 -44.5v-90q102 168 389 168q366 0 366 -358v-467q0 -94 66 -94q24 0 45 4t31 4q24 3 24 -21v-123 q0 -39 -33 -49q-58 -22 -176 -22q-37 0 -69.5 6t-65.5 22t-56 42t-37.5 68t-14.5 97v496q0 76 -44.5 121t-138.5 45q-142 0 -214 -112.5t-72 -321.5v-150q0 -65 21 -83.5t85 -18.5h37q28 0 37.5 -7.5t9.5 -27.5v-121q0 -26 -10 -34.5t-37 -8.5h-578q-28 0 -36.5 8.5 t-8.5 34.5zM459 1280q0 99 55 154t154 55q93 0 141 -43q35 -27 70 -27q66 0 73 41q3 13 9 18t24 5h98q29 0 29 -29q0 -100 -55 -155.5t-156 -55.5q-100 0 -141 41q-10 10 -16.5 15t-22 9.5t-37.5 4.5q-56 0 -66 -41q-5 -14 -11 -18.5t-25 -4.5h-95q-14 0 -21 6.5t-7 24.5z " />
<glyph unicode="&#xf2;" horiz-adv-x="1327" d="M70 545q0 94 20.5 177t66.5 155.5t114 124.5t168.5 82t224.5 30q154 0 270.5 -45t185.5 -125t103 -180t34 -219q0 -118 -34 -218.5t-102.5 -181t-185.5 -126.5t-271 -46q-124 0 -225 30.5t-168.5 83t-113.5 125.5t-66.5 156t-20.5 177zM240 1391l71 151q9 21 24 23.5 t46 -11.5l385 -172q19 -8 20.5 -21t-10.5 -36l-22 -53q-14 -32 -64 -21l-432 95q-41 10 -18 45zM375 543q0 -180 71 -277.5t218 -97.5t217.5 97.5t70.5 277.5q0 377 -288 377q-289 0 -289 -377z" />
<glyph unicode="&#xf3;" horiz-adv-x="1327" d="M70 545q0 94 20.5 177t66.5 155.5t114 124.5t168.5 82t224.5 30q154 0 270.5 -45t185.5 -125t103 -180t34 -219q0 -118 -34 -218.5t-102.5 -181t-185.5 -126.5t-271 -46q-124 0 -225 30.5t-168.5 83t-113.5 125.5t-66.5 156t-20.5 177zM375 543q0 -180 71 -277.5 t218 -97.5t217.5 97.5t70.5 277.5q0 377 -288 377q-289 0 -289 -377zM524 1361q1 13 23 21l364 177q29 16 47 13t33 -28l68 -117q16 -26 9 -41t-40 -24l-405 -109q-46 -13 -62 19l-26 55q-12 21 -11 34z" />
<glyph unicode="&#xf4;" horiz-adv-x="1327" d="M70 545q0 94 20.5 177t66.5 155.5t114 124.5t168.5 82t224.5 30q154 0 270.5 -45t185.5 -125t103 -180t34 -219q0 -118 -34 -218.5t-102.5 -181t-185.5 -126.5t-271 -46q-124 0 -225 30.5t-168.5 83t-113.5 125.5t-66.5 156t-20.5 177zM338 1292l231 193q22 19 38.5 23.5 t58.5 4.5q43 0 58 -4t38 -24l231 -193q26 -25 17.5 -38t-43.5 -13h-101q-31 0 -45 4t-35 21l-118 90l-123 -90q-23 -16 -38 -20.5t-52 -4.5h-93q-81 0 -24 51zM375 543q0 -180 71 -277.5t218 -97.5t217.5 97.5t70.5 277.5q0 377 -288 377q-289 0 -289 -377z" />
<glyph unicode="&#xf5;" horiz-adv-x="1327" d="M70 545q0 94 20.5 177t66.5 155.5t114 124.5t168.5 82t224.5 30q154 0 270.5 -45t185.5 -125t103 -180t34 -219q0 -118 -34 -218.5t-102.5 -181t-185.5 -126.5t-271 -46q-124 0 -225 30.5t-168.5 83t-113.5 125.5t-66.5 156t-20.5 177zM352 1282q0 99 55 154t154 55 q93 0 141 -43q35 -27 70 -27q67 0 74 41q3 13 9 18t24 5h98q29 0 29 -29q0 -100 -55 -155.5t-156 -55.5t-142 41q-11 11 -17 15.5t-21 9t-37 4.5q-56 0 -66 -41q-5 -14 -11.5 -18.5t-25.5 -4.5h-94q-29 0 -29 31zM375 543q0 -180 71 -277.5t218 -97.5t217.5 97.5t70.5 277.5 q0 377 -288 377q-289 0 -289 -377z" />
<glyph unicode="&#xf6;" horiz-adv-x="1327" d="M70 545q0 94 20.5 177t66.5 155.5t114 124.5t168.5 82t224.5 30q154 0 270.5 -45t185.5 -125t103 -180t34 -219q0 -118 -34 -218.5t-102.5 -181t-185.5 -126.5t-271 -46q-124 0 -225 30.5t-168.5 83t-113.5 125.5t-66.5 156t-20.5 177zM293 1395q0 69 50 117.5t116 48.5 q65 0 109 -43t44 -113t-49.5 -115t-116.5 -45q-65 0 -109 41.5t-44 108.5zM375 543q0 -180 71 -277.5t218 -97.5t217.5 97.5t70.5 277.5q0 377 -288 377q-289 0 -289 -377zM723 1395q0 69 49.5 117.5t116.5 48.5q64 0 108.5 -43t44.5 -113t-49.5 -115t-118.5 -45 q-65 0 -108 41t-43 109z" />
<glyph unicode="&#xf7;" horiz-adv-x="1286" d="M98 631v117q0 22 7.5 29t33.5 7h1008q26 0 33.5 -7t7.5 -29v-117q0 -24 -8 -32.5t-35 -8.5h-1006q-25 0 -33 8.5t-8 32.5zM459 256q0 81 57.5 135.5t134.5 54.5q74 0 125 -48t51 -128q0 -82 -56.5 -134t-135.5 -52q-74 0 -125 48t-51 124zM459 1096q0 81 57.5 135.5 t134.5 54.5q74 0 125 -48t51 -128q0 -82 -56.5 -134t-135.5 -52q-74 0 -125 48t-51 124z" />
<glyph unicode="&#xf8;" horiz-adv-x="1335" d="M70 545q0 94 20.5 177t66.5 155.5t114 124.5t168.5 82t224.5 30q58 0 114 -6l33 72q11 32 37 26l178 -32q18 -4 20 -12t-6 -25l-45 -97q133 -72 197.5 -201.5t64.5 -293.5q0 -118 -34 -218.5t-102.5 -181t-185.5 -126.5t-271 -46q-66 0 -154 15l-27 -62 q-8 -16 -15.5 -20.5t-25.5 -1.5l-174 35q-19 3 -21.5 7.5t7.5 26.5l43 95q-115 75 -171 199.5t-56 277.5zM375 543q0 -139 39 -224l276 599q-8 2 -26 2q-289 0 -289 -377zM596 172q20 -4 68 -4q147 0 217.5 97.5t70.5 277.5q0 174 -63 266z" />
<glyph unicode="&#xf9;" horiz-adv-x="1462" d="M20 920v112q0 23 10 32t36 11l364 19q30 0 40.5 -13t10.5 -45v-676q0 -75 47 -119t146 -44q146 0 220.5 96.5t74.5 277.5v232q-2 41 -28 56t-105 15q-24 0 -32.5 11.5t-8.5 34.5v112q0 23 9.5 32.5t35.5 10.5l362 19q31 0 42 -13t11 -45v-762q3 -79 68 -79q23 0 44 4 t30 4q26 3 26 -21v-123q0 -39 -34 -49q-55 -22 -175 -22q-175 0 -227 127q-117 -146 -414 -146q-89 0 -155.5 18t-118 58.5t-78 112.5t-26.5 174v459q0 50 -24 66.5t-110 16.5q-24 0 -32.5 11.5t-8.5 34.5zM244 1389l71 151q9 21 24 23.5t46 -11.5l385 -172q19 -8 20.5 -21 t-10.5 -36l-22 -53q-14 -32 -64 -21l-432 94q-42 10 -18 46z" />
<glyph unicode="&#xfa;" horiz-adv-x="1462" d="M20 920v112q0 23 10 32t36 11l364 19q30 0 40.5 -13t10.5 -45v-676q0 -75 47 -119t146 -44q146 0 220.5 96.5t74.5 277.5v232q-2 41 -28 56t-105 15q-24 0 -32.5 11.5t-8.5 34.5v112q0 23 9.5 32.5t35.5 10.5l362 19q31 0 42 -13t11 -45v-762q3 -79 68 -79q23 0 44 4 t30 4q26 3 26 -21v-123q0 -39 -34 -49q-55 -22 -175 -22q-175 0 -227 127q-117 -146 -414 -146q-89 0 -155.5 18t-118 58.5t-78 112.5t-26.5 174v459q0 50 -24 66.5t-110 16.5q-24 0 -32.5 11.5t-8.5 34.5zM528 1361q1 13 23 21l364 177q29 16 47 13t33 -28l68 -117 q16 -26 9 -41t-40 -24l-405 -109q-46 -13 -62 19l-26 55q-12 21 -11 34z" />
<glyph unicode="&#xfb;" horiz-adv-x="1462" d="M20 920v112q0 23 10 32t36 11l364 19q30 0 40.5 -13t10.5 -45v-676q0 -75 47 -119t146 -44q146 0 220.5 96.5t74.5 277.5v232q-2 41 -28 56t-105 15q-24 0 -32.5 11.5t-8.5 34.5v112q0 23 9.5 32.5t35.5 10.5l362 19q31 0 42 -13t11 -45v-762q3 -79 68 -79q23 0 44 4 t30 4q26 3 26 -21v-123q0 -39 -34 -49q-55 -22 -175 -22q-175 0 -227 127q-117 -146 -414 -146q-89 0 -155.5 18t-118 58.5t-78 112.5t-26.5 174v459q0 50 -24 66.5t-110 16.5q-24 0 -32.5 11.5t-8.5 34.5zM342 1292l231 193q22 19 38.5 23.5t58.5 4.5q43 0 58 -4t38 -24 l231 -193q26 -25 17.5 -38t-43.5 -13h-101q-30 0 -44 4t-35 21l-119 90l-123 -90q-23 -16 -38 -20.5t-52 -4.5h-92q-82 0 -25 51z" />
<glyph unicode="&#xfc;" horiz-adv-x="1462" d="M20 920v112q0 23 10 32t36 11l364 19q30 0 40.5 -13t10.5 -45v-676q0 -75 47 -119t146 -44q146 0 220.5 96.5t74.5 277.5v232q-2 41 -28 56t-105 15q-24 0 -32.5 11.5t-8.5 34.5v112q0 23 9.5 32.5t35.5 10.5l362 19q31 0 42 -13t11 -45v-762q3 -79 68 -79q23 0 44 4 t30 4q26 3 26 -21v-123q0 -39 -34 -49q-55 -22 -175 -22q-175 0 -227 127q-117 -146 -414 -146q-89 0 -155.5 18t-118 58.5t-78 112.5t-26.5 174v459q0 50 -24 66.5t-110 16.5q-24 0 -32.5 11.5t-8.5 34.5zM297 1393q0 69 50 117.5t116 48.5q65 0 109 -43t44 -113t-49 -115 t-116 -45q-65 0 -109.5 41.5t-44.5 108.5zM727 1393q0 69 49.5 117.5t116.5 48.5q64 0 109 -43t45 -113t-49.5 -115t-118.5 -45q-65 0 -108.5 41.5t-43.5 108.5z" />
<glyph unicode="&#xfd;" horiz-adv-x="1388" d="M14 922v110q0 26 8.5 34.5t34.5 8.5h545q26 0 34.5 -8.5t8.5 -34.5v-110q0 -45 -43 -45h-22q-46 0 -63 -6t-17 -27q0 -24 20 -74l205 -510l209 526q21 56 7.5 72t-75.5 16h-16q-27 0 -36 12t-9 34v112q0 26 9 34.5t36 8.5h487q28 0 36.5 -8.5t8.5 -34.5v-106 q0 -49 -43 -49h-36q-44 0 -70 -19t-53 -86l-406 -991q-66 -161 -165 -226t-261 -65q-128 0 -214.5 69t-86.5 185q0 72 43 119t119 47q64 0 110 -43t46 -113q0 -82 -66 -131h16q148 0 226 172l45 115l-379 848q-38 79 -57.5 97.5t-73.5 18.5h-19q-43 0 -43 48zM581 1361 q1 13 23 21l365 177q29 16 47 13t33 -28l67 -117q16 -26 9 -41t-40 -24l-405 -109q-46 -13 -62 19l-26 55q-12 21 -11 34z" />
<glyph unicode="&#xfe;" horiz-adv-x="1357" d="M158 -274v1740q0 51 57 54h176q53 0 53 -52v-538q126 178 379 178q109 0 190.5 -28t142.5 -90t92.5 -168.5t31.5 -256.5q0 -277 -144 -434.5t-393 -157.5q-166 0 -299 47v-292q0 -51 -55 -54h-178q-53 0 -53 52zM446 238q37 -20 106.5 -35t135.5 -15q80 0 139 31t91.5 85 t47.5 118t15 141q0 159 -52 243.5t-184 84.5q-268 0 -299 -342v-311z" />
<glyph unicode="&#xff;" horiz-adv-x="1388" d="M14 922v110q0 26 8.5 34.5t34.5 8.5h545q26 0 34.5 -8.5t8.5 -34.5v-110q0 -45 -43 -45h-22q-46 0 -63 -6t-17 -27q0 -24 20 -74l205 -510l209 526q21 56 7.5 72t-75.5 16h-16q-27 0 -36 12t-9 34v112q0 26 9 34.5t36 8.5h487q28 0 36.5 -8.5t8.5 -34.5v-106 q0 -49 -43 -49h-36q-44 0 -70 -19t-53 -86l-406 -991q-66 -161 -165 -226t-261 -65q-128 0 -214.5 69t-86.5 185q0 72 43 119t119 47q64 0 110 -43t46 -113q0 -82 -66 -131h16q148 0 226 172l45 115l-379 848q-38 79 -57.5 97.5t-73.5 18.5h-19q-43 0 -43 48zM352 1393 q0 69 50 117.5t116 48.5q65 0 109.5 -43t44.5 -113t-49.5 -115t-116.5 -45q-65 0 -109.5 41.5t-44.5 108.5zM782 1393q0 69 49.5 117.5t116.5 48.5q64 0 109 -43t45 -113t-49.5 -115t-118.5 -45q-65 0 -108.5 41.5t-43.5 108.5z" />
<glyph unicode="&#x152;" horiz-adv-x="2588" d="M74 735q0 111 23.5 214t83.5 205.5t151 177.5t237.5 122t331.5 47q315 0 524 -133v68q0 30 9.5 36.5t42.5 6.5h874q64 0 80.5 -15t19.5 -82l17 -264q3 -30 -2 -39.5t-33 -9.5h-131q-27 0 -36.5 9t-12.5 36l-12 74q-10 67 -57.5 81.5t-219.5 14.5h-233v-438h153 q33 0 52.5 12t25.5 45l8 58q4 28 13.5 35.5t35.5 7.5h111q26 0 32.5 -9.5t6.5 -36.5v-417q0 -27 -6 -36t-31 -9h-113q-25 0 -35.5 8.5t-13.5 32.5l-8 59q-6 33 -25 44t-53 11h-153v-456h327q42 0 67.5 1t51 4t39.5 10t27.5 16t21.5 26t15.5 36.5t15.5 49.5l14 76 q6 24 17.5 32.5t37.5 8.5h109q27 0 33.5 -9.5t3.5 -35.5l-37 -326q-6 -56 -23 -70t-65 -14h-901q-39 0 -49.5 8t-10.5 47v51q-203 -133 -522 -133q-179 0 -322 42.5t-236.5 114t-155.5 170.5t-88.5 206.5t-26.5 228.5zM393 737q0 -75 13 -145.5t48 -146.5t90.5 -132 t148.5 -92.5t212 -36.5q116 0 206.5 34t146 88t91.5 128.5t50 147.5t14 153q0 74 -12.5 144.5t-47.5 147.5t-90 133t-148 93t-214 37q-114 0 -204 -33.5t-146 -87.5t-92.5 -128t-51 -148.5t-14.5 -155.5z" />
<glyph unicode="&#x153;" horiz-adv-x="2158" d="M70 545q0 94 20.5 177t66.5 155.5t114 124.5t168.5 82t224.5 30q291 0 448 -164q164 164 461 164q248 0 383 -101t135 -282q0 -162 -132.5 -252t-402.5 -90q-133 0 -278 27q49 -228 344 -228q131 0 233 25q18 5 53 16t60.5 18.5t38.5 8.5q14 1 20.5 -6.5t6.5 -22.5v-118 q0 -30 -8 -42.5t-39 -25.5q-148 -68 -394 -68q-336 0 -491 152q-155 -152 -438 -152q-124 0 -225 30.5t-168.5 83t-113.5 125.5t-66.5 156t-20.5 177zM375 543q0 -180 71 -277.5t218 -97.5t217.5 97.5t70.5 277.5q0 377 -288 377q-289 0 -289 -377zM1268 604 q142 -29 266 -29q134 0 205 38.5t71 127.5q0 83 -64 131t-173 48q-144 0 -218 -86.5t-87 -229.5z" />
<glyph unicode="&#x178;" horiz-adv-x="1488" d="M-10 1327v109q0 26 8.5 34.5t34.5 8.5h549q27 0 36 -8t9 -35v-103q0 -47 -45 -47h-29q-79 0 -35 -65l258 -426l281 428q15 22 12 34.5t-13.5 17.5t-27.5 5h-35q-45 0 -45 55v101q0 27 9 35t36 8h461q28 0 36.5 -8.5t8.5 -34.5v-109q0 -47 -45 -47h-45q-26 0 -43 -13 t-53 -63l-416 -583v-316q0 -68 21 -87t83 -19h37q28 0 36.5 -7.5t8.5 -27.5v-121q0 -26 -9 -34.5t-36 -8.5h-587q-27 0 -36 8.5t-9 34.5v121q0 20 9 27.5t36 7.5h34q56 0 80 18t27 70v299l-377 577q-48 70 -78 93.5t-65 23.5h-35q-28 0 -37.5 12t-9.5 35zM414 1769 q0 69 50 117.5t116 48.5q65 0 109 -42.5t44 -112.5t-49.5 -115t-116.5 -45q-65 0 -109 41t-44 108zM844 1769q0 69 49.5 117.5t116.5 48.5q64 0 108.5 -42.5t44.5 -112.5t-49.5 -115t-118.5 -45q-65 0 -108 41t-43 108z" />
<glyph unicode="&#x2c6;" horiz-adv-x="858" d="M14 1452l232 193q22 19 38 23.5t58 4.5q43 0 58 -4t38 -24l232 -193q26 -25 17 -38t-44 -13h-100q-31 0 -45 4t-35 20l-119 91l-123 -91q-22 -16 -37.5 -20t-52.5 -4h-92q-82 0 -25 51z" />
<glyph unicode="&#x2dc;" horiz-adv-x="882" d="M29 1440q0 99 55 154t154 55q93 0 141 -43q35 -27 70 -27q66 0 73 41q3 13 9 17.5t24 4.5h98q29 0 29 -28q0 -100 -55 -155.5t-156 -55.5q-100 0 -141 41q-10 10 -16.5 15t-22 9.5t-37.5 4.5q-56 0 -66 -41q-5 -14 -11 -18.5t-25 -4.5h-95q-14 0 -21 6.5t-7 24.5z" />
<glyph unicode="&#x2000;" horiz-adv-x="974" />
<glyph unicode="&#x2001;" horiz-adv-x="1948" />
<glyph unicode="&#x2002;" horiz-adv-x="974" />
<glyph unicode="&#x2003;" horiz-adv-x="1948" />
<glyph unicode="&#x2004;" horiz-adv-x="649" />
<glyph unicode="&#x2005;" horiz-adv-x="487" />
<glyph unicode="&#x2006;" horiz-adv-x="324" />
<glyph unicode="&#x2007;" horiz-adv-x="324" />
<glyph unicode="&#x2008;" horiz-adv-x="243" />
<glyph unicode="&#x2009;" horiz-adv-x="389" />
<glyph unicode="&#x200a;" horiz-adv-x="108" />
<glyph unicode="&#x2010;" horiz-adv-x="950" d="M119 590v112q0 26 8.5 34.5t36.5 8.5h627q28 0 35.5 -9.5t7.5 -33.5v-112q0 -26 -9.5 -34.5t-36.5 -8.5h-624q-27 0 -36 8.5t-9 34.5z" />
<glyph unicode="&#x2011;" horiz-adv-x="950" d="M119 590v112q0 26 8.5 34.5t36.5 8.5h627q28 0 35.5 -9.5t7.5 -33.5v-112q0 -26 -9.5 -34.5t-36.5 -8.5h-624q-27 0 -36 8.5t-9 34.5z" />
<glyph unicode="&#x2012;" horiz-adv-x="950" d="M119 590v112q0 26 8.5 34.5t36.5 8.5h627q28 0 35.5 -9.5t7.5 -33.5v-112q0 -26 -9.5 -34.5t-36.5 -8.5h-624q-27 0 -36 8.5t-9 34.5z" />
<glyph unicode="&#x2013;" horiz-adv-x="1171" d="M119 588v117q0 22 7.5 29t33.5 7h852q26 0 33.5 -7t7.5 -29v-117q0 -24 -8 -32.5t-35 -8.5h-850q-25 0 -33 8.5t-8 32.5z" />
<glyph unicode="&#x2014;" horiz-adv-x="1851" d="M119 588v117q0 22 7.5 29t33.5 7h1532q25 0 33 -7t8 -29v-117q0 -24 -8.5 -32.5t-34.5 -8.5h-1530q-25 0 -33 8.5t-8 32.5z" />
<glyph unicode="&#x2018;" horiz-adv-x="546" d="M78 1030q0 212 272 440q19 16 28.5 17.5t31.5 -14.5l28 -27q15 -14 13.5 -23.5t-19.5 -27.5q-42 -39 -81 -97.5t-52 -107.5q63 -5 105 -52t42 -120q0 -85 -51 -138t-139 -53q-80 0 -129 53.5t-49 149.5z" />
<glyph unicode="&#x2019;" horiz-adv-x="544" d="M107.5 900.5q1.5 9.5 19.5 27.5q42 39 81 97.5t52 107.5q-63 5 -105 52t-42 120q0 85 51 137.5t139 52.5q80 0 129 -53.5t49 -149.5q0 -212 -272 -440q-19 -16 -28 -17t-31 15l-29 27q-15 14 -13.5 23.5z" />
<glyph unicode="&#x201a;" horiz-adv-x="585" d="M103.5 -252.5q1.5 9.5 19.5 27.5q42 39 81 97.5t52 107.5q-63 5 -105 52t-42 120q0 85 51 137.5t139 52.5q80 0 129 -53.5t49 -149.5q0 -212 -272 -440q-19 -16 -28.5 -17t-31.5 15l-28 27q-15 14 -13.5 23.5z" />
<glyph unicode="&#x201c;" horiz-adv-x="991" d="M78 1030q0 212 272 440q19 16 28.5 17.5t31.5 -14.5l28 -27q15 -14 13.5 -23.5t-19.5 -27.5q-42 -39 -81 -97.5t-52 -107.5q63 -5 105 -52t42 -120q0 -85 -51 -138t-139 -53q-80 0 -129 53.5t-49 149.5zM524 1030q0 211 273 440q19 16 28 17.5t31 -14.5l29 -27 q15 -14 13.5 -23.5t-19.5 -27.5q-42 -39 -81.5 -97.5t-52.5 -107.5q63 -5 105.5 -52t42.5 -120q0 -85 -51.5 -138t-139.5 -53q-80 0 -129 53.5t-49 149.5z" />
<glyph unicode="&#x201d;" horiz-adv-x="991" d="M107.5 900.5q1.5 9.5 19.5 27.5q42 39 81 97.5t52 107.5q-63 5 -105 52t-42 120q0 85 51 137.5t139 52.5q80 0 129 -53.5t49 -149.5q0 -212 -272 -440q-19 -16 -28 -17t-31 15l-29 27q-15 14 -13.5 23.5zM551.5 900.5q1.5 9.5 19.5 27.5q42 39 81.5 97.5t52.5 107.5 q-63 5 -105.5 52t-42.5 120q0 85 51.5 137.5t139.5 52.5q80 0 129 -53.5t49 -149.5q0 -211 -273 -440q-19 -16 -28 -17t-31 15l-29 27q-15 14 -13.5 23.5z" />
<glyph unicode="&#x201e;" horiz-adv-x="1044" d="M103.5 -252.5q1.5 9.5 19.5 27.5q42 39 81 97.5t52 107.5q-63 5 -105 52t-42 120q0 85 51 137.5t139 52.5q80 0 129 -53.5t49 -149.5q0 -212 -272 -440q-19 -16 -28.5 -17t-31.5 15l-28 27q-15 14 -13.5 23.5zM562.5 -252.5q1.5 9.5 19.5 27.5q42 39 81 97.5t52 107.5 q-63 5 -105.5 52t-42.5 120q0 85 51.5 137.5t139.5 52.5q80 0 129 -53.5t49 -149.5q0 -212 -272 -440q-19 -16 -28.5 -17t-31.5 15l-29 27q-14 14 -12.5 23.5z" />
<glyph unicode="&#x2022;" horiz-adv-x="905" d="M154 723q0 141 94 234.5t219 93.5q121 0 202 -85t81 -225q0 -139 -96 -231t-220 -92q-120 0 -200 83.5t-80 221.5z" />
<glyph unicode="&#x2026;" horiz-adv-x="1861" d="M92 152q0 81 57.5 135.5t133.5 54.5q74 0 126 -48t52 -128q0 -82 -57 -134t-136 -52q-74 0 -125 48t-51 124zM745 152q0 81 57.5 135.5t133.5 54.5q74 0 126 -48t52 -128q0 -82 -56.5 -134t-135.5 -52q-74 0 -125.5 48t-51.5 124zM1399 152q0 81 57 135.5t133 54.5 q74 0 126 -48t52 -128q0 -82 -56.5 -134t-135.5 -52q-74 0 -125 48t-51 124z" />
<glyph unicode="&#x202f;" horiz-adv-x="389" />
<glyph unicode="&#x2039;" horiz-adv-x="1107" d="M61 567q0 67 13.5 95.5t58.5 56.5l569 334q46 26 91 26h174q27 0 42 -14t15 -37q0 -29 -45 -61l-676 -400l676 -399q45 -32 45 -62q0 -23 -15 -37t-42 -14h-174q-44 0 -91 27l-569 334q-45 28 -58.5 56t-13.5 95z" />
<glyph unicode="&#x203a;" horiz-adv-x="1103" d="M80 106q0 35 45 62l676 399l-676 400q-45 27 -45 61q0 23 15 37t42 14h172q47 0 92 -26l568 -334q45 -27 58 -55.5t13 -96.5t-13 -95.5t-58 -55.5l-568 -334q-47 -27 -92 -27h-172q-27 0 -42 14t-15 37z" />
<glyph unicode="&#x205f;" horiz-adv-x="487" />
<glyph unicode="&#x20ac;" horiz-adv-x="1867" d="M74 803q0 24 7 39.5t17 24.5t30 13.5t38 5.5t49 1h131q46 277 260.5 443.5t564.5 166.5q119 0 218.5 -22t165 -58.5t111 -83.5t65.5 -96t20 -98v-13q0 -82 -57.5 -131t-139.5 -49q-74 0 -125 48t-51 128q0 75 49 127q-107 35 -233 35q-225 0 -355.5 -108.5t-168.5 -288.5 h604q76 0 76 -113q0 -40 -18.5 -61t-67.5 -21h-609q3 -32 9 -69h440q26 0 43 -11t24 -30.5t9 -35t2 -36.5q0 -40 -18.5 -61t-67.5 -21h-367q136 -219 485 -219q91 0 168.5 9.5t139 29t92.5 32t76 33.5q21 11 32 15.5t23.5 5.5t18 -8t5.5 -29v-152q0 -11 -1 -16.5t-8.5 -15 t-22.5 -17.5q-75 -45 -219 -82t-353 -37q-291 0 -494 113t-286 338h-231q-78 0 -78 109q0 55 32 70.5t109 15.5h123l-6 69h-182q-78 0 -78 111z" />
<glyph unicode="&#x2122;" horiz-adv-x="2297" d="M23 1212.5v8v8.5l8 188q1 42 12.5 52t50.5 10h740q38 0 48 -9.5t13 -52.5l10 -188v-5.5v-5v-4.5t-0.5 -4l-1.5 -3t-2 -2.5t-3 -2t-4.5 -1.5t-5.5 -0.5t-7 -0.5h-107q-16 0 -23 5.5t-10 21.5l-6 33q-9 40 -37.5 50.5t-117.5 10.5v-512q0 -44 14.5 -57t56.5 -13h8 q19 0 25 -4.5t6 -17.5v-94q0 -20 -6 -25.5t-25 -5.5h-393q-17 0 -23.5 6t-6.5 23v96q0 11 6 16.5t24 5.5h8q37 0 54 12t20 46v524q-93 0 -122 -10t-36 -51l-4 -33q-8 -27 -34 -27h-105q-7 0 -11.5 1t-7.5 2t-4 4.5t-1 5zM913 621v96q0 13 5.5 17.5t23.5 4.5h10 q41 0 55.5 11.5t14.5 52.5v483q-1 32 -9 40.5t-32 10.5l-12 2q-29 0 -29 25v86q0 17 6 23t23 6h307q21 0 33 -31l264 -684v-2l266 688q5 16 13 22.5t28 6.5h270q17 0 23 -6t6 -23v-80q0 -33 -29 -33l-12 -2q-12 0 -20.5 -2t-19 -8t-16 -20.5t-5.5 -36.5v-457q0 -47 9 -59.5 t48 -12.5h20q37 0 37 -22v-96q0 -17 -8.5 -23t-28.5 -6h-350q-17 0 -23.5 6t-6.5 23v96q0 13 6 17.5t24 4.5h11q30 0 42.5 15t12.5 57v285l-195 -496q-4 -12 -10 -15t-25 -3h-202q-26 0 -33 16l-213 535v-330q0 -43 14.5 -53.5t59.5 -10.5h8q19 0 25 -4.5t6 -15.5v-98 q0 -17 -6 -23t-25 -6h-332q-17 0 -23 6t-6 23z" />
<glyph unicode="&#x25fc;" horiz-adv-x="1075" d="M0 0v1075h1075v-1075h-1075z" />
</font>
</defs>
</svg>
